STARTFONT 2.1
FONT -FontForge-Permanent Marker-Book-R-Normal--36-360-72-72-P-208-ISO10646-1
SIZE 36 72 72
FONTBOUNDINGBOX 55 51 -10 -11
COMMENT "Generated by fontforge, http://fontforge.sourceforge.net"
COMMENT "Copyright (c) 2010 by Font Diner, Inc. All rights reserved."
STARTPROPERTIES 39
FOUNDRY "FontForge"
FAMILY_NAME "Permanent Marker"
WEIGHT_NAME "Book"
SLANT "R"
SETWIDTH_NAME "Normal"
ADD_STYLE_NAME ""
PIXEL_SIZE 36
POINT_SIZE 360
RESOLUTION_X 72
RESOLUTION_Y 72
SPACING "P"
AVERAGE_WIDTH 208
CHARSET_REGISTRY "ISO10646"
CHARSET_ENCODING "1"
FONTNAME_REGISTRY ""
CHARSET_COLLECTIONS "ISO10646-1"
FONT_NAME "PermanentMarker-Regular"
FACE_NAME "Permanent Marker Regular"
COPYRIGHT "Copyright (c) 2010 by Font Diner, Inc. All rights reserved."
FONT_VERSION "1.001"
FONT_ASCENT 29
FONT_DESCENT 7
UNDERLINE_POSITION -4
UNDERLINE_THICKNESS 2
X_HEIGHT 20
CAP_HEIGHT 25
RAW_ASCENT 799
RAW_DESCENT 200
NORM_SPACE 13
RELATIVE_WEIGHT 40
RELATIVE_SETWIDTH 50
SUPERSCRIPT_X 0
SUPERSCRIPT_Y 16
SUPERSCRIPT_SIZE 22
SUBSCRIPT_X 0
SUBSCRIPT_Y 4
SUBSCRIPT_SIZE 22
AVG_LOWERCASE_WIDTH 205
AVG_UPPERCASE_WIDTH 245
ENDPROPERTIES
CHARS 230
STARTCHAR space
ENCODING 32
SWIDTH 370 0
DWIDTH 13 0
BBX 1 1 0 0
BITMAP
00
ENDCHAR
STARTCHAR exclam
ENCODING 33
SWIDTH 260 0
DWIDTH 9 0
BBX 10 28 0 -1
BITMAP
0100
0380
0780
07C0
0780
07C0
0FC0
0F80
0F80
0F80
1F80
1F00
1F00
1F00
1F00
1F00
3E00
1E00
0C00
0000
0000
2000
7C00
FC00
FC00
7C00
7C00
3000
ENDCHAR
STARTCHAR quotedbl
ENCODING 34
SWIDTH 492 0
DWIDTH 18 0
BBX 16 18 3 9
BITMAP
1018
1E1E
3F1F
3F3F
7F3F
7E3E
7E7E
7C7C
7C7C
FCFC
FCFC
FCFC
F8F8
F8F8
F9F8
70F0
7070
0040
ENDCHAR
STARTCHAR numbersign
ENCODING 35
SWIDTH 703 0
DWIDTH 25 0
BBX 25 26 1 0
BITMAP
00203000
00703800
00787800
00F87800
00F87C00
00F8FC00
01F8F800
1FFFFE00
3FFFFF00
3FFFFF80
3FFFFF00
3FE3E000
03C3E000
07C3E000
07C7C000
7FFFF800
FFFFFC00
FFFFFC00
FFFFF000
7F0F8000
1F1F0000
3F1F0000
3E3F0000
3E3E0000
3E3E0000
1C1C0000
ENDCHAR
STARTCHAR dollar
ENCODING 36
SWIDTH 493 0
DWIDTH 18 0
BBX 19 27 1 -1
BITMAP
001800
003800
003800
007C00
007F00
00FF80
07FFC0
3FFFE0
7FFFE0
FF8000
FF8000
FFE000
7FF000
1FF000
007800
003C00
003C00
00FC00
03F800
3FF000
7FE000
7FC000
3F8000
0F8000
1F0000
0F0000
060000
ENDCHAR
STARTCHAR percent
ENCODING 37
SWIDTH 643 0
DWIDTH 23 0
BBX 23 26 1 0
BITMAP
010000
03800E
07C01E
0FC03C
1FC07C
3FE0FC
79E1F8
7BE3F0
7FE7E0
7FEFC0
7F9F80
1C3F00
007E00
00FC00
01F8C0
03F1E0
07C7C0
0F8FE0
1F1FE0
3E1EF0
7C3CF0
7C3FF0
783FF0
F83FE0
F81F80
700000
ENDCHAR
STARTCHAR ampersand
ENCODING 38
SWIDTH 599 0
DWIDTH 22 0
BBX 21 19 0 1
BITMAP
000C00
001C00
003E00
003E00
0E3E00
3FFE00
3FFE00
7FFFC0
FBFFF0
FFFFF8
7FFFF8
3FFFE0
0FFC00
00F800
01F800
01F800
01F800
01F000
004000
ENDCHAR
STARTCHAR quotesingle
ENCODING 39
SWIDTH 265 0
DWIDTH 10 0
BBX 8 17 3 10
BITMAP
10
1E
3F
3F
7F
7E
7E
7C
7C
FC
FC
FC
F8
F8
F8
70
70
ENDCHAR
STARTCHAR parenleft
ENCODING 40
SWIDTH 361 0
DWIDTH 13 0
BBX 16 36 1 -6
BITMAP
0007
000F
001F
007F
00FF
01FE
03FE
03F8
07F0
0FE0
0FC0
1F80
1F80
3F80
3F00
3E00
3E00
7E00
7C00
7C00
FC00
FC00
FC00
FC00
FC00
FC00
FC00
FC00
7C00
7E00
7E00
7E00
3E00
1E00
0E00
0E00
ENDCHAR
STARTCHAR parenright
ENCODING 41
SWIDTH 361 0
DWIDTH 13 0
BBX 16 36 -4 -6
BITMAP
0060
00F0
0078
007C
007C
007E
007E
007E
003E
003F
003F
003E
003E
003E
003E
003E
003E
007E
007C
007C
00FC
00FC
01FC
01F8
03F8
03F0
07E0
0FE0
1FC0
7F80
FF00
FE00
FC00
F800
F000
E000
ENDCHAR
STARTCHAR asterisk
ENCODING 42
SWIDTH 673 0
DWIDTH 24 0
BBX 22 18 3 8
BITMAP
0380C0
0787C0
0FCF80
0FFF80
07FF00
03FF00
07FFF0
FFFFF8
FFFFFC
FFFFFC
FFFE00
23FF00
07FF00
07DF80
0FCF80
1F8700
1F0300
000100
ENDCHAR
STARTCHAR plus
ENCODING 43
SWIDTH 579 0
DWIDTH 21 0
BBX 19 18 0 1
BITMAP
003000
007800
007800
00F800
00F800
01F800
01F800
3FFF80
FFFFC0
7FFFE0
7FFFE0
7FFE00
13F000
03F000
03E000
03E000
07E000
03C000
ENDCHAR
STARTCHAR comma
ENCODING 44
SWIDTH 204 0
DWIDTH 7 0
BBX 8 11 -4 -6
BITMAP
1C
1F
1F
1F
3F
3F
7E
7E
FC
FC
38
ENDCHAR
STARTCHAR hyphen
ENCODING 45
SWIDTH 609 0
DWIDTH 22 0
BBX 18 6 1 6
BITMAP
3FFF00
FFFF80
FFFFC0
FFFFC0
7FF800
200000
ENDCHAR
STARTCHAR period
ENCODING 46
SWIDTH 228 0
DWIDTH 8 0
BBX 6 7 -1 -1
BITMAP
20
7C
FC
FC
7C
7C
30
ENDCHAR
STARTCHAR slash
ENCODING 47
SWIDTH 401 0
DWIDTH 14 0
BBX 18 26 -1 0
BITMAP
0000C0
0001C0
0003C0
0003C0
0007C0
000FC0
001F80
001F00
003E00
007E00
00FC00
01F800
01F000
03E000
07E000
0FC000
1F8000
3F0000
7E0000
7C0000
F80000
F80000
F80000
F80000
F80000
F00000
ENDCHAR
STARTCHAR zero
ENCODING 48
SWIDTH 686 0
DWIDTH 25 0
BBX 22 28 1 -1
BITMAP
000700
000F80
001FC0
003FC0
007FE0
00FFC0
01FFC0
03FFC0
07FFE0
0FFFE0
1FE3F0
1FC1F0
3F81F8
7F81F8
7F00F8
FE00FC
FE007C
FC00FC
FC00FC
F803FC
F80FFC
FFFFFC
FFFFF8
FFFFF0
7FFFE0
7FFF80
3FFE00
07E000
ENDCHAR
STARTCHAR one
ENCODING 49
SWIDTH 322 0
DWIDTH 12 0
BBX 9 26 1 0
BITMAP
1800
3C00
3E00
3F00
3F00
3F00
1F00
1F80
1F80
1F80
1F80
1F80
1F80
3F00
3F00
3F00
7F00
7E00
7E00
FE00
FE00
FC00
FC00
FC00
F800
7800
ENDCHAR
STARTCHAR two
ENCODING 50
SWIDTH 650 0
DWIDTH 23 0
BBX 24 26 2 0
BITMAP
1FFC00
7FFF00
FFFF80
7FFF80
7FFFE0
7FFFE0
7F0FE0
000FF0
003FE0
007FC0
00FFC0
03FF80
07FE00
0FFC00
1FF800
1FF000
3FC000
7F8008
FF03FC
FFFFFE
FFFFFE
FFFFFF
FFFFFE
7FFFF0
7FFE00
3FC000
ENDCHAR
STARTCHAR three
ENCODING 51
SWIDTH 561 0
DWIDTH 20 0
BBX 20 26 0 0
BITMAP
003F80
0FFFC0
7FFFE0
FFFFE0
FFFFF0
FFFFF0
FFFFE0
FFFFC0
67FF80
0FFE00
0FF800
0FFC00
0FFF00
0FFF80
07FF80
01FFC0
003FC0
000FE0
000FE0
20FFE0
3FFFC0
7FFF80
7FFF00
7FFE00
7FF800
3F8000
ENDCHAR
STARTCHAR four
ENCODING 52
SWIDTH 582 0
DWIDTH 21 0
BBX 19 28 2 -1
BITMAP
001800
001C00
001E00
401E00
E01E00
F03E00
F03E00
F83E00
F83E00
F83E40
F83FC0
7FFFE0
7FFFE0
7FFFC0
7FFFC0
3FFE00
1FF800
01F800
01F000
01F000
01F000
01E000
03E000
01F000
01F000
01F800
00F800
00F000
ENDCHAR
STARTCHAR five
ENCODING 53
SWIDTH 580 0
DWIDTH 21 0
BBX 22 26 2 0
BITMAP
008000
03C000
0FE1F0
1FFFF8
7FFFF8
7FFFFC
FFFFFC
FFFFF8
FFFF00
FFC000
FF8000
FFE000
7FF000
3FF800
0FF800
03FC00
00FE00
003E00
003F00
F1FF00
FFFF00
FFFE00
FFFE00
7FFC00
3FF800
03A000
ENDCHAR
STARTCHAR six
ENCODING 54
SWIDTH 500 0
DWIDTH 18 0
BBX 17 27 0 -1
BITMAP
007800
00F800
01F800
03FC00
07FC00
07FC00
0FE000
0FC000
1F8000
1F8000
1F0000
3F0000
3E0800
7E7E00
7CFE00
7DFF00
FFFF80
FBFF80
FBFF80
FBFF80
FFFF00
FFFF00
FFFE00
FFF800
FFF000
7F0000
080000
ENDCHAR
STARTCHAR seven
ENCODING 55
SWIDTH 576 0
DWIDTH 21 0
BBX 23 26 0 0
BITMAP
3FE000
7FFC00
7FFF00
7FFF00
FFFF80
7FFFC0
79FFC0
000FC0
0007C0
0007C0
000FC0
000FE0
00FFFE
1FFFFC
1FFFFE
3FFFFC
3FFFE0
1FFE00
0FFC00
01F800
01F800
03F000
03F000
03E000
03E000
03C000
ENDCHAR
STARTCHAR eight
ENCODING 56
SWIDTH 537 0
DWIDTH 19 0
BBX 19 26 2 0
BITMAP
07E180
1FF3C0
3FF3C0
7FFBC0
7FFBE0
7FF9E0
FCFBE0
FC7FE0
FC1FC0
FE7FC0
7FFF80
7FFE00
3FFC00
1FF000
3FE000
7FE000
7FF000
7DF000
78F800
78F800
7FF800
7FF800
3FF800
3FF000
1FF000
0FC000
ENDCHAR
STARTCHAR nine
ENCODING 57
SWIDTH 529 0
DWIDTH 19 0
BBX 18 27 1 -1
BITMAP
00FC00
03FC00
07FE00
0FFF00
1FFF80
3FFF80
7F8F80
7E1F80
7FFFC0
FFFFC0
FFFFC0
7FFF80
7FFF00
3FDF00
001E00
001E00
003E00
003E00
003E00
003C00
003C00
007C00
007C00
007C00
007800
007800
002000
ENDCHAR
STARTCHAR colon
ENCODING 58
SWIDTH 241 0
DWIDTH 9 0
BBX 8 17 -1 -1
BITMAP
08
1E
3F
3F
3F
1F
1C
00
00
00
20
7C
FC
FC
7C
7C
30
ENDCHAR
STARTCHAR semicolon
ENCODING 59
SWIDTH 245 0
DWIDTH 9 0
BBX 10 22 -3 -6
BITMAP
0100
07C0
0FC0
0FC0
0FC0
07C0
0300
0000
0000
0000
0000
1C00
1F00
1F00
1F80
3F00
3F00
3F00
7E00
FC00
FC00
3800
ENDCHAR
STARTCHAR less
ENCODING 60
SWIDTH 625 0
DWIDTH 23 0
BBX 22 16 0 1
BITMAP
000078
0001FC
0007FC
003FFC
01FFF0
0FFFC0
7FFF00
FFF800
FFC000
7FE000
3FFC00
0FFF00
03FF80
00FFC0
000FE0
0001E0
ENDCHAR
STARTCHAR equal
ENCODING 61
SWIDTH 586 0
DWIDTH 21 0
BBX 20 12 0 4
BITMAP
07FFE0
3FFFE0
3FFFF0
3FFFE0
3FFC00
000000
000000
03FF00
7FFF80
FFFFC0
FFFF80
7FA000
ENDCHAR
STARTCHAR greater
ENCODING 62
SWIDTH 634 0
DWIDTH 23 0
BBX 22 16 -1 1
BITMAP
1E0000
1FE000
0FF800
0FFF00
07FFC0
01FFF0
003FF8
000FFC
007FFC
03FFF8
1FFF80
3FFC00
FFE000
FF8000
FE0000
780000
ENDCHAR
STARTCHAR question
ENCODING 63
SWIDTH 556 0
DWIDTH 20 0
BBX 20 27 2 -1
BITMAP
0FFE00
1FFFC0
3FFFF0
7FFFF0
7FFFF0
7FFFF0
100FF0
000FF0
001FE0
007FE0
00FFC0
03FF80
07FE00
0FF800
1FF000
1FC000
1F0000
1E0000
000000
000000
000000
F80000
FC0000
FC0000
FC0000
780000
700000
ENDCHAR
STARTCHAR at
ENCODING 64
SWIDTH 732 0
DWIDTH 26 0
BBX 26 28 0 -1
BITMAP
00028000
0007E000
0007F000
000FF800
000FFC00
003FFC00
007F3E00
00FC1F00
03F80F00
07F06F80
0FC3E780
1F87E7C0
3F1FE3C0
7E3FE3C0
7E7DE3C0
FCF9C780
F9F1C780
F9FFEF80
F1FFFF00
F0FFFE00
E07FF800
F81E0000
7E000000
7FC03000
1FFFF800
0FFFFC00
03FFFC00
001FF000
ENDCHAR
STARTCHAR A
ENCODING 65
SWIDTH 702 0
DWIDTH 25 0
BBX 26 26 -1 0
BITMAP
00010000
0003E000
0007F000
000FF000
007FF000
00FFF000
00FFF000
01FFF000
01FFF800
03FDF800
03F9F800
07F9F800
07F1FC00
0FE0FF00
0FE1FFC0
1FFFFFC0
1FFFFF80
3FFFFF00
3FFFFE00
7F3FFE00
7E103F00
7E007F00
FE01FE00
7C00FE00
7C007C00
3800F800
ENDCHAR
STARTCHAR B
ENCODING 66
SWIDTH 686 0
DWIDTH 25 0
BBX 25 27 -1 -1
BITMAP
007FE000
0FFFF800
3FFFFC00
7FFFFE00
FFFFFF00
FFF0FE00
7F81FE00
3DC3FE00
1DEFFC00
01FFF800
03FFF000
03FFE000
03FFF000
07FFF800
07FFFC00
07F81E00
0FE01F00
0FC03F00
0FC07F80
0FC1FF80
1F8FFF00
1FFFFE00
1FFFFC00
1FFFF800
1FFFE000
0FFE0000
06780000
ENDCHAR
STARTCHAR C
ENCODING 67
SWIDTH 611 0
DWIDTH 22 0
BBX 21 26 0 0
BITMAP
0000C0
0003F0
000FF8
003FF8
00FFF8
03FFF8
07FFF0
0FFFC0
1FFE00
3FF800
7FF000
7FC000
FF0000
FE0000
FC0000
FC0000
F80000
F80000
7C0000
7FC000
7FFFE0
3FFFF0
1FFFF0
0FFFF0
03FFE0
007FC0
ENDCHAR
STARTCHAR D
ENCODING 68
SWIDTH 588 0
DWIDTH 21 0
BBX 20 26 1 0
BITMAP
300000
7C0000
7F8000
3FE000
3FF800
7FFC00
7FFE00
7CFF00
3C1F80
3C07C0
3C07E0
3C01E0
3C01E0
3C01F0
7C03F0
7C0FE0
7C3FE0
7C7FC0
FFFF80
FFFF00
FFFE00
FFF800
FFE000
FF8000
FE0000
700000
ENDCHAR
STARTCHAR E
ENCODING 69
SWIDTH 626 0
DWIDTH 23 0
BBX 23 26 0 0
BITMAP
000078
001FFC
01FFFE
0FFFFE
3FFFFE
1FFFF8
1FFF80
1FFC00
1FC000
0FC000
0FFF80
0FFFC0
1FFFE0
1FFFE0
3FFFC0
3FFF00
7F0000
7E0000
FE0000
FC01E0
FFFFF8
7FFFFC
7FFFF8
7FFFF0
3FFFE0
1FFE00
ENDCHAR
STARTCHAR F
ENCODING 70
SWIDTH 575 0
DWIDTH 21 0
BBX 27 26 -1 0
BITMAP
0001FF00
001FFF80
00FFFFC0
07FFFFE0
1FFFFFC0
1FFFC000
1FFC0000
0FF00000
0FF00000
03F00000
03E00000
07E00000
17E3F000
7FFFF000
FFFFF800
FFFFF000
7FFFE000
7FFF8000
3FE00000
3F000000
3F000000
3E000000
3E000000
3E000000
3E000000
1E000000
ENDCHAR
STARTCHAR G
ENCODING 71
SWIDTH 789 0
DWIDTH 28 0
BBX 30 26 0 0
BITMAP
00006000
0001F800
0003FC00
000FFC00
003FFE00
007FFC00
00FFF000
01FFC000
03FF8000
07FE0000
0FF80800
1FF03C00
3FE07F00
3FC03FC0
7F803FF0
FF003FF0
FE003FFC
FC001FFC
FC01FFFC
FC1FFFF8
7FFFFFF0
7FFFFFC0
7FFFFF00
3FFFF000
1FFF8000
0FF00000
ENDCHAR
STARTCHAR H
ENCODING 72
SWIDTH 695 0
DWIDTH 25 0
BBX 24 28 0 -1
BITMAP
000008
000018
06001C
0E003C
0F003E
0F803E
1F803F
1FC03F
1FC03F
1F803F
1F803F
1F807F
3F807F
1F807F
3F87FF
3FFFFE
3FFFFE
7FFFFE
7FFFFC
7FFFFC
FFF9FC
FFC1F8
FF01FC
FF01FC
FE01F8
FE00F8
7C0060
100000
ENDCHAR
STARTCHAR I
ENCODING 73
SWIDTH 515 0
DWIDTH 19 0
BBX 24 26 -1 0
BITMAP
007FFC
07FFFE
07FFFF
07FFFF
07FFFE
03FF80
011F00
001F00
003F00
003F00
003E00
003E00
007E00
007C00
00FC00
00FC00
00FC00
01F800
01F800
03F000
0FFE00
FFFF00
FFFF80
FFFF80
FFFF00
7E0000
ENDCHAR
STARTCHAR J
ENCODING 74
SWIDTH 668 0
DWIDTH 24 0
BBX 30 26 -1 0
BITMAP
00003100
01FFFFF0
0FFFFFF8
1FFFFFFC
1FFFFFFC
0FFFFFF8
0FF8FC00
0701F800
0001F800
0001F800
0001F800
0001F000
0003F000
0003F000
0003F000
0007E000
0007E000
000FE000
000FC000
781FC000
7FFFC000
FFFF8000
FFFF0000
7FFE0000
3FFC0000
01F00000
ENDCHAR
STARTCHAR K
ENCODING 75
SWIDTH 776 0
DWIDTH 28 0
BBX 29 26 0 0
BITMAP
00E00000
01F00100
01F80780
03F80FC0
07F83FE0
07F07FE0
07F1FFC0
07E3FF80
0FE7FF00
0FFFFC00
1FFFF800
1FFFE000
1FFFC000
3FFF8000
3FFF0000
3FFF0000
7FFF8000
7FFFE000
7FEFFFE0
7FC7FFF0
FF83FFF8
FF81FFF0
7F007FF0
7E001FE0
3E000000
3C000000
ENDCHAR
STARTCHAR L
ENCODING 76
SWIDTH 632 0
DWIDTH 23 0
BBX 22 26 0 0
BITMAP
038000
03F000
03F000
07F000
07F000
07F000
0FE000
0FE000
0FC000
1FC000
1FC000
1F8000
3F8000
3F8000
3F0000
7F0000
7E0000
7E0000
FE0000
FE7FC0
FFFFF8
7FFFFC
7FFFFC
7FFFFC
3FFFF8
1FC000
ENDCHAR
STARTCHAR M
ENCODING 77
SWIDTH 973 0
DWIDTH 35 0
BBX 35 27 0 -1
BITMAP
0038000400
007C000F00
00FE000F80
01FF001FC0
01FF003FC0
03FF807FE0
03FF01FFC0
07FF83FFC0
07FF87FFC0
0FFF9FFFC0
0FFFFFFFC0
1FFFFFFFC0
1FFFFFFFC0
3FFFFFDF80
3FBFFF1F80
3F9FFE1F80
7F8FF83F80
7F07C03F80
FF00003F80
FE00003F00
FE00003F00
FE00003F00
FC00003E00
7C00003E00
7800001C00
7800001000
1000000000
ENDCHAR
STARTCHAR N
ENCODING 78
SWIDTH 684 0
DWIDTH 25 0
BBX 27 26 -1 0
BITMAP
00600600
00780700
00FC0FC0
00FE0FC0
01FE1FE0
01FE1FC0
01FE1FC0
03FE1F80
03FC1F80
07FC1F80
07FC3F80
0FFC3F00
0FFC3F00
1FFC7F00
1FFC7F00
3FFCFF00
3FFDFF00
7FFFFE00
7FBFFE00
FFBFFE00
7F1FFC00
7E1FF800
7E0FF000
3E07F000
3E03C000
1C000000
ENDCHAR
STARTCHAR O
ENCODING 79
SWIDTH 744 0
DWIDTH 27 0
BBX 26 27 0 0
BITMAP
0000C000
0001E000
0007F000
000FF800
001FF800
003FF800
007FF800
00FFF800
03FFFC00
07FFFC00
07FE7E00
0FF03E00
1FE03F00
3FC01F00
3F801F80
7F000F80
7F000F80
7E000F80
FC003FC0
FC007F80
FC03FF80
FFFFFF80
7FFFFF00
7FFFFE00
3FFFF800
1FFFC000
0FFF0000
ENDCHAR
STARTCHAR P
ENCODING 80
SWIDTH 639 0
DWIDTH 23 0
BBX 23 27 1 -1
BITMAP
007FE0
00FFF0
01FFF8
03FFFC
07FFFC
07FFFC
0FFFFE
0FC07E
0FC07E
3F83FE
3FBFFE
7FFFFE
7FFFFC
7FFFF8
FFFFF0
7FFF80
7FFC00
7F8000
7E0000
7E0000
7E0000
FE0000
7E0000
FE0000
7C0000
7C0000
200000
ENDCHAR
STARTCHAR Q
ENCODING 81
SWIDTH 744 0
DWIDTH 27 0
BBX 26 28 0 -2
BITMAP
0007E000
0007F000
0007F800
000FFC00
001FFC00
003FFE00
007FFE00
00FFFF00
03FF1F80
07FE1F80
0FF80FC0
1FF007C0
3FE007C0
7FCF87C0
7F8FCFC0
FF0FDFC0
FE07FFC0
FC03FF80
FC03FF80
F81FFF00
FDFFFE00
FFFFFE00
7FFFFE00
7FFFFE00
3FFF3F00
0FF81F00
00001F00
00000E00
ENDCHAR
STARTCHAR R
ENCODING 82
SWIDTH 646 0
DWIDTH 23 0
BBX 23 27 0 -1
BITMAP
001E00
003F80
007F80
007FE0
00FFE0
01FFF0
0BFFF0
1FF3F0
1FE1F8
1FC1F8
1FC3F8
1F8FF8
3FFFF8
3FFFF0
3FFFE0
7FFF80
7FFC00
7FF000
7FF000
7FFC00
7FFF80
7FFFFC
FCFFFE
7C7FFE
7C1FFE
3803FE
0000FE
ENDCHAR
STARTCHAR S
ENCODING 83
SWIDTH 576 0
DWIDTH 21 0
BBX 25 26 0 0
BITMAP
0007FC00
003FFE00
01FFFF00
0FFFFF00
3FFFFF80
7FFFFF00
7FFC0000
7FC00000
FFF00000
7FFC0000
FFFE0000
3FFF0000
0FFF0000
003F8000
0007C000
0003C000
0007C000
000FC000
003FC000
00FF8000
07FF8000
3FFF0000
3FFE0000
3FF80000
3FF00000
1F800000
ENDCHAR
STARTCHAR T
ENCODING 84
SWIDTH 607 0
DWIDTH 22 0
BBX 28 27 0 -1
BITMAP
0008FFC0
03FFFFE0
FFFFFFF0
FFFFFFF0
FFFFFFF0
7FFFFF80
7FFF0000
3E3F0000
007E0000
007E0000
00FE0000
00FC0000
01FC0000
01F80000
01F80000
03F00000
03F00000
03F00000
07E00000
07E00000
07C00000
07C00000
07C00000
03E00000
03F00000
01F00000
00600000
ENDCHAR
STARTCHAR U
ENCODING 85
SWIDTH 695 0
DWIDTH 25 0
BBX 24 26 2 0
BITMAP
000018
00001C
00001E
30003E
78003E
78003F
7C003F
7C003F
FE007F
FE007E
FC007E
FC00FE
FC01FE
FC01FC
FC03F8
FC0FF8
FC1FF0
FCFFF0
FFFFC0
FFFF80
7FFF80
7FFF00
7FFE00
3FF800
1FE000
078000
ENDCHAR
STARTCHAR V
ENCODING 86
SWIDTH 583 0
DWIDTH 21 0
BBX 22 26 2 0
BITMAP
200078
7000F8
F801F8
F801FC
FC03F8
FC07F8
7C0FF0
7E0FF0
7E1FE0
7E3FC0
7E3F80
7E7F00
7EFF00
7EFE00
7FFC00
7FFC00
7FF800
3FF800
3FF000
3FE000
3FE000
3FC000
1F8000
1F8000
1F8000
0F0000
ENDCHAR
STARTCHAR W
ENCODING 87
SWIDTH 994 0
DWIDTH 36 0
BBX 37 26 1 0
BITMAP
02000000C0
07000001E0
0F801001F0
0FC03803F0
1FC03C03F0
1FC07E03F8
1FC0FE07F0
3F80FE07F0
3F81FE0FE0
3F83FE0FE0
7F03FE0FE0
7F07FC1FC0
7F07FC1FC0
7E0FFC3F80
7E1FFC3F80
FE1FFC7F00
FE3FFCFF00
FCFFFDFE00
FDFFFFFE00
FFFF7FFC00
FFFE3FFC00
7FFC1FF800
7FF81FF000
3FF00FF000
1FC00FE000
0600078000
ENDCHAR
STARTCHAR X
ENCODING 88
SWIDTH 623 0
DWIDTH 22 0
BBX 26 27 -1 -1
BITMAP
0C000000
0F000700
0F800F80
0FC03F80
0FE07FC0
0FF1FF80
07FBFF80
07FFFE00
03FFFC00
01FFF000
01FFE000
00FF8000
01FF0000
03FF0000
07FF8000
0FFFC000
1FFFC000
1FEFE000
3FCFF000
7F87F000
7F03F800
7E03F800
FC01F800
FC01F800
7800F000
78007000
30000000
ENDCHAR
STARTCHAR Y
ENCODING 89
SWIDTH 493 0
DWIDTH 18 0
BBX 21 28 1 -1
BITMAP
000040
7001E0
7C03F0
7C07F8
7E0FF8
3E1FF0
7E1FE0
3E3FC0
3F7F80
3FFF00
3FFE00
3FFE00
1FFC00
1FF800
0FF800
07F000
0FF000
0FE000
1FC000
1FC000
3F8000
3F8000
7F0000
7F0000
FE0000
7E0000
7C0000
380000
ENDCHAR
STARTCHAR Z
ENCODING 90
SWIDTH 664 0
DWIDTH 24 0
BBX 25 27 0 -1
BITMAP
03FBEC00
07FFFF00
07FFFF00
07FFFF80
03FFFF80
03FFFF80
0181FF00
0003FE00
0007FC00
001FF000
003FE000
00FFC000
01FF8000
07FF0000
0FFE0000
1FF80000
7FF00000
7FC00000
FF803000
FF03F800
FE1FFC00
FFFFFC00
FFFFFC00
FFFFF000
7FFFC000
7FF40000
2FE00000
ENDCHAR
STARTCHAR bracketleft
ENCODING 91
SWIDTH 387 0
DWIDTH 14 0
BBX 26 38 -1 -6
BITMAP
007FFF80
00FFFF80
00FFFFC0
00FFFFC0
00FFFF00
00F80000
00F80000
01F80000
01F80000
01F00000
01F00000
03F00000
03F00000
03E00000
03E00000
07E00000
07E00000
07C00000
07C00000
0FC00000
0FC00000
0F800000
1F800000
1F800000
1F800000
1F000000
3F000000
3F000000
3E000000
7E000000
7E000000
7C000000
FFFE0000
FFFF0000
FFFF8000
FFFF0000
7FF00000
78000000
ENDCHAR
STARTCHAR backslash
ENCODING 92
SWIDTH 352 0
DWIDTH 13 0
BBX 9 28 2 -1
BITMAP
4000
E000
F000
F800
F800
7800
7800
7800
7C00
7C00
3C00
3C00
3C00
3C00
3E00
3E00
1E00
1E00
1E00
1F00
1F00
1F00
1F00
1F00
1F00
0F80
0F00
0600
ENDCHAR
STARTCHAR bracketright
ENCODING 93
SWIDTH 403 0
DWIDTH 15 0
BBX 25 39 -10 -6
BITMAP
0000F800
007FFF00
00FFFF80
007FFF80
007FFF80
007FFF80
00301F00
00001F00
00001F00
00003F00
00003E00
00003E00
00003E00
00007E00
00007C00
00007C00
00007C00
0000FC00
0000F800
0000F800
0001F800
0001F800
0001F000
0003F000
0003F000
0003F000
0003E000
0007E000
0007E000
0007C000
000FC000
000FC000
000F8000
1FFF8000
FFFF8000
FFFF8000
FFFF0000
7FF00000
78000000
ENDCHAR
STARTCHAR asciicircum
ENCODING 94
SWIDTH 518 0
DWIDTH 19 0
BBX 16 21 0 6
BITMAP
0018
003C
003C
003E
007E
00FE
00FE
01FF
03FF
03FF
07DF
0FDF
1F9F
1F8F
3F0F
7E0F
7E0F
FC0F
F807
7003
2001
ENDCHAR
STARTCHAR underscore
ENCODING 95
SWIDTH 708 0
DWIDTH 26 0
BBX 29 5 -4 -1
BITMAP
7FFFFFC0
FFFFFFF0
7FFFFFF8
7FFFFFF8
3FFFF000
ENDCHAR
STARTCHAR grave
ENCODING 96
SWIDTH 754 0
DWIDTH 27 0
BBX 11 11 10 16
BITMAP
1000
3800
7C00
7E00
FF00
3F80
1FC0
0FE0
07E0
03E0
00C0
ENDCHAR
STARTCHAR a
ENCODING 97
SWIDTH 581 0
DWIDTH 21 0
BBX 22 23 -1 -1
BITMAP
000800
000E00
001F00
003F80
01FF80
01FF80
03FF80
03FF80
07FF80
07E7C0
0FC7C0
0FC7F0
1F87F8
1FFFFC
3FFFF8
3EFFE0
7EFFF0
7CF1F0
FC03F0
FC0FE0
7803E0
7803C0
000100
ENDCHAR
STARTCHAR b
ENCODING 98
SWIDTH 573 0
DWIDTH 21 0
BBX 21 23 -1 -1
BITMAP
007C00
07FF80
3FFFC0
FFFFE0
FFFFF0
FF07F0
7F0FE0
3BDFE0
07FFC0
07FF80
07FF00
07FF80
0FFFC0
0FC0E0
0F80F0
1F81F0
1F07F8
1F3FF0
3FFFE0
3FFFC0
1FFF00
1FFC00
0DE000
ENDCHAR
STARTCHAR c
ENCODING 99
SWIDTH 513 0
DWIDTH 19 0
BBX 18 21 0 0
BITMAP
000F00
003F80
00FFC0
01FFC0
07FF80
0FFF00
1FF800
3FE000
7F8000
FF0000
FC0000
F80000
F80000
F00000
F80000
7E0000
7FFE00
3FFF00
3FFF80
0FFF80
03FE00
ENDCHAR
STARTCHAR d
ENCODING 100
SWIDTH 497 0
DWIDTH 18 0
BBX 16 23 1 -1
BITMAP
4000
7800
7E00
7F80
7FE0
7FF0
7BF8
787C
783E
781F
780F
780F
780F
783F
78FF
FBFE
FFFC
FFF8
FFE0
FF80
FE00
F000
4000
ENDCHAR
STARTCHAR e
ENCODING 101
SWIDTH 521 0
DWIDTH 19 0
BBX 20 21 0 0
BITMAP
003FC0
03FFF0
1FFFF0
3FFFE0
3FFF80
3FF000
1F0000
1F0000
1FFE00
1FFF00
3FFF00
3FFE00
7FF800
7E0000
FC0000
F80700
FFFF80
7FFFC0
7FFF80
7FFF80
3FFC00
ENDCHAR
STARTCHAR f
ENCODING 102
SWIDTH 455 0
DWIDTH 16 0
BBX 22 22 -1 0
BITMAP
0001F0
001FF8
01FFFC
0FFFFC
1FFFF8
1FF800
1FE000
0FC000
07C000
07C000
0F8000
7FFF00
FFFF80
FFFF80
7FFF00
7FF000
3E0000
3E0000
3C0000
7C0000
3C0000
3C0000
ENDCHAR
STARTCHAR g
ENCODING 103
SWIDTH 652 0
DWIDTH 23 0
BBX 25 22 0 0
BITMAP
00010000
00078000
000FC000
003FE000
00FFE000
01FFC000
03FF0000
07FC0000
0FF00000
1FE0C000
3FC1F000
7F83F800
7F01FE00
FE01FF00
FC01FF80
F801FF80
F83FFF00
FFFFFE00
7FFFFC00
7FFFE000
3FFF0000
1FF00000
ENDCHAR
STARTCHAR h
ENCODING 104
SWIDTH 582 0
DWIDTH 21 0
BBX 20 23 0 -1
BITMAP
0000C0
0800C0
1C01E0
1E01E0
1E01F0
1F01F0
1F01F0
1F01F0
3F01F0
3F03F0
3E03F0
3E0FF0
3EFFE0
7FFFE0
7FFFE0
7FFFE0
FFE7C0
FF8FC0
FE0FC0
FC0FC0
FC07C0
780700
200000
ENDCHAR
STARTCHAR i
ENCODING 105
SWIDTH 320 0
DWIDTH 12 0
BBX 8 22 2 0
BITMAP
04
0C
1C
1E
3E
3E
3F
3E
7E
7E
7C
7C
FC
FC
F8
F8
F8
F8
F8
78
7C
78
ENDCHAR
STARTCHAR j
ENCODING 106
SWIDTH 534 0
DWIDTH 19 0
BBX 25 21 -1 0
BITMAP
01FFFE00
0FFFFF00
1FFFFF80
1FFFFF80
1FFFFF00
0E07C000
0007C000
0007C000
000F8000
000F8000
000F8000
000F8000
001F0000
001F0000
003F0000
203E0000
7FFE0000
FFFC0000
FFFC0000
7FF80000
27E00000
ENDCHAR
STARTCHAR k
ENCODING 107
SWIDTH 645 0
DWIDTH 23 0
BBX 24 23 0 -1
BITMAP
010000
03C000
03E038
07E0FC
07E1FE
0FC7FC
0FCFFC
0F9FF0
1FFFE0
1FFF80
3FFF00
3FFE00
3FF800
7FFC00
7FFE00
7FFFC4
7F9FFE
FF0FFF
FE07FF
7E01FE
7C007C
380000
100000
ENDCHAR
STARTCHAR l
ENCODING 108
SWIDTH 533 0
DWIDTH 19 0
BBX 18 23 0 -1
BITMAP
020000
078000
07C000
07C000
0FC000
0FC000
0F8000
1F8000
1F8000
3F0000
3F0000
3E0000
7E0000
7E0000
7C0000
FC0000
FCFE00
FFFF80
7FFFC0
7FFFC0
7FFFC0
3FC000
080000
ENDCHAR
STARTCHAR m
ENCODING 109
SWIDTH 814 0
DWIDTH 29 0
BBX 29 23 0 -1
BITMAP
00400000
00E000C0
01F801E0
03F803F0
03FC07F8
07FC0FF8
07FC1FF8
0FFC3FF8
0FFCFFF0
1FFFFFF0
1FFFFFF0
3FFFFDF0
3F7FF3F0
7E7FE3F0
7E3F83F0
7E0003E0
FC0003E0
FC0003E0
FC0003C0
F80003C0
780003C0
70000100
20000000
ENDCHAR
STARTCHAR n
ENCODING 110
SWIDTH 564 0
DWIDTH 20 0
BBX 22 22 -1 0
BITMAP
008020
00C070
01F078
01F07C
03F8FC
03F8FC
07F0F8
07F0F8
0FF0F8
0FF1F8
1FF1F0
1FF1F0
3FF3F0
3FF3F0
7FF7F0
7FFFE0
FF7FE0
7E7FC0
7C3FC0
7C1F80
3C0F00
180400
ENDCHAR
STARTCHAR o
ENCODING 111
SWIDTH 628 0
DWIDTH 23 0
BBX 21 23 0 -1
BITMAP
000700
001F00
003F80
007FC0
00FFC0
01FFC0
03FFC0
07FFC0
0FEBE0
1FC1E0
3F81F0
3F00F8
7E00F8
7C0078
7C00F8
F801F8
F807F8
FFFFF8
7FFFF0
7FFFE0
3FFF80
1FFC00
008000
ENDCHAR
STARTCHAR p
ENCODING 112
SWIDTH 524 0
DWIDTH 19 0
BBX 19 23 1 -1
BITMAP
007C00
01FF00
07FF80
07FFC0
0FFFC0
0FFFE0
1F87E0
1F03E0
7E1FE0
7FFFE0
FFFFC0
FFFFC0
FFFF00
FFFC00
7FE000
7C0000
7C0000
7C0000
FC0000
FC0000
F80000
780000
200000
ENDCHAR
STARTCHAR q
ENCODING 113
SWIDTH 625 0
DWIDTH 23 0
BBX 22 24 0 -2
BITMAP
000A00
001F00
001F80
003FC0
007FE0
00FFE0
01FFF0
07FDF0
0FF0F8
1FE078
3F807C
7F387C
7E3E7C
FC3EF8
FC1FF8
F80FF8
F03FF0
F3FFE0
FFFFE0
FFFFE0
7FFDF0
3FE1F0
0400F0
000060
ENDCHAR
STARTCHAR r
ENCODING 114
SWIDTH 541 0
DWIDTH 19 0
BBX 20 23 0 -1
BITMAP
003000
007C00
00FE00
01FF00
03FF00
03FF80
1FFF80
1FCF80
3F87C0
3F1FC0
3FFFC0
3FFF80
3FFF00
7FFC00
7FE000
7F8000
7FE000
7FF800
FFFFE0
79FFE0
78FFE0
701FF0
0007E0
ENDCHAR
STARTCHAR s
ENCODING 115
SWIDTH 463 0
DWIDTH 17 0
BBX 21 23 0 -1
BITMAP
0007C0
007FE0
03FFF0
0FFFF0
3FFFF8
7FFFF0
7F8000
FFC000
FFF000
7FF800
3FF800
01FC00
003E00
001E00
001E00
007E00
00FE00
07FC00
3FF800
3FF000
3FE000
3F8000
180000
ENDCHAR
STARTCHAR t
ENCODING 116
SWIDTH 479 0
DWIDTH 17 0
BBX 23 23 0 -1
BITMAP
0000F8
00FFFC
FFFFFE
FFFFFE
FFFFFE
7FFF00
7FF800
00F800
01F000
01F000
03F000
03E000
03E000
07C000
07C000
07C000
0F8000
0F8000
0F8000
078000
07C000
07C000
018000
ENDCHAR
STARTCHAR u
ENCODING 117
SWIDTH 584 0
DWIDTH 21 0
BBX 20 22 2 0
BITMAP
000080
0000C0
0000E0
6001E0
7001E0
7801F0
F801F0
F801F0
FC03E0
F803E0
F807E0
F80FC0
F81FC0
F83F80
F87F80
FFFF00
FFFE00
FFFC00
7FF800
7FF000
3FC000
1F0000
ENDCHAR
STARTCHAR v
ENCODING 118
SWIDTH 485 0
DWIDTH 17 0
BBX 18 22 2 0
BITMAP
000100
6003C0
F007C0
F80FC0
F81FC0
781F80
7C3F80
7C7F00
7C7E00
7CFC00
7DF800
7DF800
7FF000
7FE000
7FE000
7FC000
3FC000
3F8000
3F0000
1F0000
1F0000
0E0000
ENDCHAR
STARTCHAR w
ENCODING 119
SWIDTH 825 0
DWIDTH 30 0
BBX 31 22 1 0
BITMAP
00000010
06000038
0E00803C
1F81C07C
1F01E07C
3F03E07E
3F07E0FC
3E07E0FC
7E0FE1F8
7E1FE1F8
7C1FC1F0
7C3FC3F0
FC3FC7E0
FC7FC7E0
F8FFCFE0
F9FFFFC0
FFFFFF80
FFF9FF80
7FF1FF00
7FC0FF00
3F807E00
1E007800
ENDCHAR
STARTCHAR x
ENCODING 120
SWIDTH 506 0
DWIDTH 18 0
BBX 22 22 -1 -1
BITMAP
0C0030
1F0078
1F81F8
1FC3FC
0FCFF8
0FFFF0
07FFC0
03FF80
03FE00
01FC00
03FC00
07FC00
0FFE00
1FFE00
3FBF00
7F1F80
7E0F80
7C0FC0
F807C0
780780
700380
300100
ENDCHAR
STARTCHAR y
ENCODING 121
SWIDTH 400 0
DWIDTH 14 0
BBX 17 23 1 -1
BITMAP
200600
780F00
7C1F80
7C3F80
7C7F80
7C7E00
7CFE00
3FFC00
3FF800
3FF000
1FE000
1FE000
0FC000
0FC000
1F8000
1F0000
3F0000
3E0000
7E0000
7C0000
FC0000
780000
380000
ENDCHAR
STARTCHAR z
ENCODING 122
SWIDTH 547 0
DWIDTH 20 0
BBX 21 22 0 -1
BITMAP
0FFFE0
0FFFF0
0FFFF8
07FFF8
07FFF0
000FF0
001FC0
007F80
00FF00
03FE00
07FC00
0FF800
3FE000
7FC000
FF0080
FE0780
FC3FE0
FFFFE0
FFFFC0
FFFF00
7FF800
3FC000
ENDCHAR
STARTCHAR braceleft
ENCODING 123
SWIDTH 448 0
DWIDTH 16 0
BBX 28 38 1 -6
BITMAP
003FFFC0
007FFFE0
007FFFF0
003FFFF0
007FFF80
007C0000
007C0000
007C0000
007C0000
00FC0000
00F80000
00F80000
01F80000
07F80000
1FF00000
FFF00000
FFC00000
FF000000
FF000000
FF800000
3FE00000
1FE00000
0FC00000
0FC00000
0FC00000
0FC00000
0F800000
1F800000
1F800000
1F000000
3F000000
3F000000
3FFF0000
7FFFC000
7FFFC000
3FFF8000
3FFC0000
3C000000
ENDCHAR
STARTCHAR bar
ENCODING 124
SWIDTH 332 0
DWIDTH 12 0
BBX 12 28 0 -1
BITMAP
0040
00E0
00E0
00F0
01F0
01F0
01F0
03E0
03E0
03C0
07C0
07C0
0780
0F80
0F80
0F00
1F00
1F00
1E00
3E00
3E00
7C00
7C00
FC00
F800
F800
F000
2000
ENDCHAR
STARTCHAR braceright
ENCODING 125
SWIDTH 481 0
DWIDTH 17 0
BBX 27 39 -10 -6
BITMAP
0001F000
00FFFE00
00FFFF00
00FFFF80
00FFFF00
007FFF00
00601F00
00003F00
00003E00
00003E00
00003E00
00007E00
00007E00
00007C00
0000FC00
0000FC00
0000FE00
0000FF00
0000FF80
00003FC0
00001FE0
00003FE0
0000FFC0
0003FFC0
0003FE00
0003F800
0007E000
0007E000
0007C000
000FC000
000FC000
000F8000
001F8000
1FFF8000
FFFF0000
FFFF0000
FFFF0000
FFF00000
70000000
ENDCHAR
STARTCHAR asciitilde
ENCODING 126
SWIDTH 581 0
DWIDTH 21 0
BBX 20 6 0 8
BITMAP
0FE1F0
3FF1E0
3FFFE0
7FFFC0
F8FF80
F87F00
ENDCHAR
STARTCHAR uni00A0
ENCODING 160
SWIDTH 370 0
DWIDTH 13 0
BBX 1 1 0 0
BITMAP
00
ENDCHAR
STARTCHAR exclamdown
ENCODING 161
SWIDTH 260 0
DWIDTH 9 0
BBX 9 28 0 -1
BITMAP
0600
0F00
0F80
1F80
1F80
1F00
0200
0000
0000
0800
1E00
3E00
3E00
7E00
7E00
7C00
7C00
7C00
7C00
F800
F800
F800
F800
F800
F000
F000
7000
6000
ENDCHAR
STARTCHAR cent
ENCODING 162
SWIDTH 488 0
DWIDTH 18 0
BBX 17 27 0 -1
BITMAP
003000
003800
007800
007C00
007E00
007F00
00FF80
07FF80
0FFF00
1FF800
3FC000
7F8000
7E0000
FC0000
F80000
F00000
780000
7F0000
7FFE00
3FFF00
0FFF00
0FFE00
0F8000
1F8000
1F0000
0F0000
060000
ENDCHAR
STARTCHAR sterling
ENCODING 163
SWIDTH 586 0
DWIDTH 21 0
BBX 21 20 0 3
BITMAP
003FE0
007FF0
00FFF8
01FFF8
01F8F8
03F000
03E000
07F800
7FFF00
7FFF80
7FFF80
7FFF00
3F8000
0F8000
0F8180
0F1FC0
FFFFC0
FFFFC0
FFFFC0
7FFF00
ENDCHAR
STARTCHAR currency
ENCODING 164
SWIDTH 509 0
DWIDTH 18 0
BBX 18 18 0 1
BITMAP
1C7180
1EFF80
1FFFC0
1FFF80
1FFF00
1FFE00
1FFC00
3F3E00
3E3E00
7C7E00
7FFE00
7FFE00
7FFC00
7FFC00
FFFE00
F01E00
701C00
600800
ENDCHAR
STARTCHAR yen
ENCODING 165
SWIDTH 563 0
DWIDTH 20 0
BBX 21 23 0 0
BITMAP
040060
0F01E0
0F81F8
0F83F8
0787F0
0F8FE0
07DFC0
07DF80
07FF00
07FE00
03FE00
7FFF80
FFFFE0
7FFFE0
7FFFC0
3FF000
07E000
07E000
0FC000
0FC000
0F8000
0F8000
070000
ENDCHAR
STARTCHAR brokenbar
ENCODING 166
SWIDTH 301 0
DWIDTH 11 0
BBX 12 28 -1 -1
BITMAP
0020
0060
00F0
00F0
00F0
01F0
01F0
01F0
03E0
03E0
03C0
03C0
0380
0080
0000
0000
0C00
0E00
1F00
1F00
3E00
3E00
7C00
7C00
7C00
F800
7800
2000
ENDCHAR
STARTCHAR section
ENCODING 167
SWIDTH 630 0
DWIDTH 23 0
BBX 22 31 0 -3
BITMAP
001FF8
01FFF8
0FFFFC
1FFFFC
1FFFFC
1FFC30
1FC000
1FF000
0FFC00
0FFF00
07FFC0
0FFFE0
1FFFF0
3FFFF8
3FC3F8
7E00F8
3F07F8
3FFFF8
1FFFF0
0FFFE0
07FFC0
03FFC0
00FFE0
001FF0
000FF0
107FF0
7FFFE0
FFFFE0
7FFFC0
7FFF00
3FF000
ENDCHAR
STARTCHAR dieresis
ENCODING 168
SWIDTH 754 0
DWIDTH 27 0
BBX 16 7 8 20
BITMAP
1000
783C
FC3E
FC3F
FC3E
F81C
4008
ENDCHAR
STARTCHAR copyright
ENCODING 169
SWIDTH 614 0
DWIDTH 22 0
BBX 21 22 1 4
BITMAP
003C00
01FF00
07FF80
0FE1C0
1F00E0
1E0E70
3C3F70
7CFF70
79FC38
F3E038
F78038
E70038
E60038
E70078
F7F870
F3FCF0
F1F9E0
7003C0
380F80
3F3F00
0FFE00
03F800
ENDCHAR
STARTCHAR ordfeminine
ENCODING 170
SWIDTH 454 0
DWIDTH 16 0
BBX 16 16 0 7
BITMAP
00E0
01F0
07F8
0FF8
0FF8
1FF8
1FF8
3F7E
3FFF
7FFF
7FFE
FFFE
F87E
F8FC
707C
2010
ENDCHAR
STARTCHAR guillemotleft
ENCODING 171
SWIDTH 566 0
DWIDTH 20 0
BBX 19 16 0 -1
BITMAP
00C0E0
01E1E0
03E3E0
0FC7E0
1F9FC0
BF7F80
FE7F00
FCFC00
F07800
FC7E00
7E3F00
3F1F80
1F0F80
0F87C0
0381C0
018080
ENDCHAR
STARTCHAR logicalnot
ENCODING 172
SWIDTH 698 0
DWIDTH 25 0
BBX 23 12 0 0
BITMAP
3FFFF0
FFFFF8
FFFFFC
7FFFFE
7FFFFC
10007C
0000F8
0000F8
0001F8
0001F0
0001F0
0000E0
ENDCHAR
STARTCHAR sfthyphen
ENCODING 173
SWIDTH 608 0
DWIDTH 22 0
BBX 18 6 1 6
BITMAP
3FFF00
FFFF80
FFFFC0
FFFFC0
7FF800
200000
ENDCHAR
STARTCHAR registered
ENCODING 174
SWIDTH 624 0
DWIDTH 22 0
BBX 21 22 1 4
BITMAP
001E00
01FF00
03FFC0
07E0E0
0F8CF0
1E1E70
3E3F78
3C7F38
78F738
79E738
F1FF38
F1FE38
F3F838
F3E038
F3F878
F3FFF0
733FF0
7A07E0
380FC0
1F3F80
0FFE00
03F800
ENDCHAR
STARTCHAR macron
ENCODING 175
SWIDTH 754 0
DWIDTH 27 0
BBX 13 6 9 21
BITMAP
03C0
7FF0
FFF8
FFF8
FFF0
6000
ENDCHAR
STARTCHAR degree
ENCODING 176
SWIDTH 284 0
DWIDTH 10 0
BBX 11 11 3 18
BITMAP
0300
0F80
1F80
3F80
7FC0
7BC0
F3C0
FFE0
FFC0
FF80
3E00
ENDCHAR
STARTCHAR plusminus
ENCODING 177
SWIDTH 559 0
DWIDTH 20 0
BBX 21 26 -1 -1
BITMAP
000C00
001C00
001F00
003E00
003E00
003F00
007E00
01FFC0
3FFFF0
1FFFF8
1FFFF8
1FFFC0
0CFC00
00FC00
00F800
00F800
00F800
00F000
006000
000000
0FFF00
FFFF80
FFFFE0
FFFFE0
7FFF00
300000
ENDCHAR
STARTCHAR twosuperior
ENCODING 178
SWIDTH 386 0
DWIDTH 14 0
BBX 13 13 3 13
BITMAP
1C00
FF80
FFC0
FFE0
FFE0
1FC0
3F80
7F00
FE70
FFF0
FFF8
FFF0
FF80
ENDCHAR
STARTCHAR threesuperior
ENCODING 179
SWIDTH 366 0
DWIDTH 13 0
BBX 11 13 3 13
BITMAP
0780
FFC0
FFE0
FFE0
FFC0
7F80
3FC0
3FC0
0FE0
3FE0
3FE0
7FC0
3F80
ENDCHAR
STARTCHAR acute
ENCODING 180
SWIDTH 754 0
DWIDTH 27 0
BBX 11 11 10 16
BITMAP
0080
01C0
07E0
0FE0
1FE0
3FC0
3F80
FE00
7C00
7800
7000
ENDCHAR
STARTCHAR mu
ENCODING 181
SWIDTH 569 0
DWIDTH 21 0
BBX 20 23 0 -4
BITMAP
000060
0000E0
1800E0
1C00F0
1E00F0
1E01F0
3E01F0
3E01F0
3E03E0
3E07E0
3E0FC0
7E1FC0
7E7F80
7FFF00
7FFE00
FFFC00
FFF800
FFF000
FFC000
F00000
F00000
F00000
600000
ENDCHAR
STARTCHAR paragraph
ENCODING 182
SWIDTH 729 0
DWIDTH 26 0
BBX 27 28 2 -1
BITMAP
00007E00
001FFF80
01FFFFC0
0FFFFFE0
3FFFFFC0
7FFFFF80
FFFF3E00
FFDF3E00
FF1F3C00
FC3E7C00
FC3E7C00
7E3E7C00
7FFE7C00
3FFE7C00
0FFFF800
07FFF800
01FFFC00
00FFFE00
00FBFC00
00F9F000
00F9F000
00F9F000
00F3F000
01F1F000
01F1F800
01F1F800
01E0F800
0040F000
ENDCHAR
STARTCHAR periodcentered
ENCODING 183
SWIDTH 226 0
DWIDTH 8 0
BBX 6 6 2 10
BITMAP
F0
F8
FC
F8
F0
60
ENDCHAR
STARTCHAR cedilla
ENCODING 184
SWIDTH 754 0
DWIDTH 27 0
BBX 12 13 10 -11
BITMAP
0E00
1F00
3E00
3C00
3F80
3FC0
1FE0
03E0
01F0
FFF0
FFE0
FFC0
7F00
ENDCHAR
STARTCHAR onesuperior
ENCODING 185
SWIDTH 206 0
DWIDTH 7 0
BBX 6 13 2 13
BITMAP
30
78
7C
7C
3C
3C
3C
7C
7C
78
F8
F8
70
ENDCHAR
STARTCHAR ordmasculine
ENCODING 186
SWIDTH 445 0
DWIDTH 16 0
BBX 16 17 0 7
BITMAP
0020
00F0
01F8
03F8
07F8
0FF8
1FFC
3FFC
7F3E
7E3E
7C3F
FFFF
FFFE
7FFE
7FFC
3FF0
1F80
ENDCHAR
STARTCHAR guillemotright
ENCODING 187
SWIDTH 595 0
DWIDTH 21 0
BBX 20 16 -1 -1
BITMAP
301C00
3C1E00
3E0F80
1F8FC0
1FC7E0
07E3F0
03E1F0
03E1F0
0FE7F0
1FEFF0
3F9FC0
7E3F00
FC7E00
F03C00
E07800
403000
ENDCHAR
STARTCHAR onequarter
ENCODING 188
SWIDTH 705 0
DWIDTH 25 0
BBX 23 27 1 -1
BITMAP
1000E0
3801E0
3C03E0
3E03E0
1E07E0
1E0FC0
3E0F80
3E1F00
3C3F00
7C7E00
7CFC00
79F800
79F030
03F438
07EE78
0FDE78
1F9F7C
3F0FFE
3E0FFE
7E0FFE
7C07F8
F801E0
F801E0
F801E0
F801F0
7001E0
1000C0
ENDCHAR
STARTCHAR onehalf
ENCODING 189
SWIDTH 750 0
DWIDTH 27 0
BBX 24 27 1 -1
BITMAP
1000E0
3801E0
3C03E0
3E03E0
1E07E0
1E0FC0
3E0F80
3E1F00
3C3F00
7C7E00
7CFC00
79F800
79F000
03F7F0
07EFF8
0FCFFC
1F8FFC
3F06FC
3E01FC
7E03F8
7C07E0
F80FFE
F80FFF
F80FFF
F80FFE
7007E0
100000
ENDCHAR
STARTCHAR threequarters
ENCODING 190
SWIDTH 818 0
DWIDTH 29 0
BBX 25 27 3 -1
BITMAP
7FC00C00
FFC01E00
FFE03E00
FFE07E00
FFC0FE00
3F01FC00
7F81F800
3F83F000
4FC7E000
FFCFC000
FF9F8000
FF3F0000
FC7C0E00
00FD0E00
01FB9E00
03F79E00
07E7DF00
0FC7FF80
1F87FF80
3F07FF00
7E03FC00
7C00F800
7C00F000
F800F000
F800F800
7000F000
10006000
ENDCHAR
STARTCHAR questiondown
ENCODING 191
SWIDTH 556 0
DWIDTH 20 0
BBX 20 27 -2 -1
BITMAP
0000E0
0003F0
0003F0
0003F0
0003F0
0000E0
000000
000000
000400
000780
000F80
003F80
00FF80
03FE00
07FE00
1FF800
3FF000
7FC000
FF8000
FE0000
FFC1C0
FFFFE0
FFFFE0
FFFFE0
FFFFC0
1FFF80
01FF00
ENDCHAR
STARTCHAR Agrave
ENCODING 192
SWIDTH 702 0
DWIDTH 25 0
BBX 26 38 -1 0
BITMAP
00020000
00070000
000F8000
000FC000
001FE000
0007F000
0003F800
0001FC00
0000FC00
00007C00
00001800
00000000
00010000
0003E000
0007F000
000FF000
007FF000
00FFF000
00FFF000
01FFF000
01FFF800
03FDF800
03F9F800
07F9F800
07F1FC00
0FE0FF00
0FE1FFC0
1FFFFFC0
1FFFFF80
3FFFFF00
3FFFFE00
7F3FFE00
7E103F00
7E007F00
FE01FE00
7C00FE00
7C007C00
3800F800
ENDCHAR
STARTCHAR Aacute
ENCODING 193
SWIDTH 702 0
DWIDTH 25 0
BBX 26 39 -1 0
BITMAP
00001000
00003800
00007C00
0000FC00
0001FC00
0003F800
0007F000
000FE000
000FC000
000F0000
00060000
00000000
00000000
00010000
0003E000
0007F000
000FF000
007FF000
00FFF000
00FFF000
01FFF000
01FFF800
03FDF800
03F9F800
07F9F800
07F1FC00
0FE0FF00
0FE1FFC0
1FFFFFC0
1FFFFF80
3FFFFF00
3FFFFE00
7F3FFE00
7E103F00
7E007F00
FE01FE00
7C00FE00
7C007C00
3800F800
ENDCHAR
STARTCHAR Acircumflex
ENCODING 194
SWIDTH 702 0
DWIDTH 25 0
BBX 26 37 -1 0
BITMAP
0000C000
0003E000
0007F800
000FFC00
001FFE00
003F3F00
007E3F00
003C1F00
00180600
00100400
00000000
00010000
0003E000
0007F000
000FF000
007FF000
00FFF000
00FFF000
01FFF000
01FFF800
03FDF800
03F9F800
07F9F800
07F1FC00
0FE0FF00
0FE1FFC0
1FFFFFC0
1FFFFF80
3FFFFF00
3FFFFE00
7F3FFE00
7E103F00
7E007F00
FE01FE00
7C00FE00
7C007C00
3800F800
ENDCHAR
STARTCHAR Atilde
ENCODING 195
SWIDTH 702 0
DWIDTH 25 0
BBX 27 35 -1 0
BITMAP
0003E0E0
000FF3E0
000FFBE0
001FFFC0
003EFF80
003E7F80
00383E00
00000000
00000000
00010000
0003E000
0007F000
000FF000
007FF000
00FFF000
00FFF000
01FFF000
01FFF800
03FDF800
03F9F800
07F9F800
07F1FC00
0FE0FF00
0FE1FFC0
1FFFFFC0
1FFFFF80
3FFFFF00
3FFFFE00
7F3FFE00
7E103F00
7E007F00
FE01FE00
7C00FE00
7C007C00
3800F800
ENDCHAR
STARTCHAR Adieresis
ENCODING 196
SWIDTH 702 0
DWIDTH 25 0
BBX 26 35 -1 0
BITMAP
00040000
003C1F00
003E1F80
007F1F80
007E1F00
003C0F00
00100400
00000000
00000000
00010000
0003E000
0007F000
000FF000
007FF000
00FFF000
00FFF000
01FFF000
01FFF800
03FDF800
03F9F800
07F9F800
07F1FC00
0FE0FF00
0FE1FFC0
1FFFFFC0
1FFFFF80
3FFFFF00
3FFFFE00
7F3FFE00
7E103F00
7E007F00
FE01FE00
7C00FE00
7C007C00
3800F800
ENDCHAR
STARTCHAR Aring
ENCODING 197
SWIDTH 702 0
DWIDTH 25 0
BBX 26 35 -1 0
BITMAP
00001000
00003800
0000F800
0001F800
0003FC00
0003FC00
00079E00
0007FE00
0007FE00
0007FC00
0007F800
0007F000
000FF000
007FF000
00FFF000
00FFF000
01FFF000
01FFF800
03FDF800
03F9F800
07F9F800
07F1FC00
0FE0FF00
0FE1FFC0
1FFFFFC0
1FFFFF80
3FFFFF00
3FFFFE00
7F3FFE00
7E103F00
7E007F00
FE01FE00
7C00FE00
7C007C00
3800F800
ENDCHAR
STARTCHAR AE
ENCODING 198
SWIDTH 1153 0
DWIDTH 42 0
BBX 45 26 -3 0
BITMAP
0000300001E0
00007C007FF0
0000FE07FFF8
0001FE3FFFF8
000FFEFFFFF8
001FFE7FFFE0
003FFE7FFE00
003FFE7FF000
007FFE7F0000
00FFFE3F0000
00FF7E3FFE00
01FE7E3FFF00
01FC7E7FFF80
03F87FFFFF80
07F07FFFFF00
07FFFFFFFC00
0FFFFFFC0000
1FFFFFF80000
1FFFFFF80000
3FBFFFF00780
3F0C3FFFFFE0
7F003FFFFFE0
FE01FFFFFFE0
7E00FFFFFFC0
7C007EFFFF80
3800F87FF800
ENDCHAR
STARTCHAR Ccedilla
ENCODING 199
SWIDTH 611 0
DWIDTH 22 0
BBX 21 37 0 -11
BITMAP
0000C0
0003F0
000FF8
003FF8
00FFF8
03FFF8
07FFF0
0FFFC0
1FFE00
3FF800
7FF000
7FC000
FF0000
FE0000
FC0000
FC0000
F80000
F80000
7C0000
7FC000
7FFFE0
3FFFF0
1FFFF0
0FFFF0
07FFE0
01FFC0
03C000
07C000
07E000
07F800
03FC00
007C00
001E00
00FE00
1FFE00
1FFC00
0FF000
ENDCHAR
STARTCHAR Egrave
ENCODING 200
SWIDTH 626 0
DWIDTH 23 0
BBX 23 39 0 0
BITMAP
001000
003800
007C00
007E00
007F00
003F80
001FC0
000FE0
0007E0
0001E0
0000E0
000000
000000
000078
001FFC
01FFFE
0FFFFE
3FFFFE
1FFFF8
1FFF80
1FFC00
1FC000
0FC000
0FFF80
0FFFC0
1FFFE0
1FFFE0
3FFFC0
3FFF00
7F0000
7E0000
FE0000
FC01E0
FFFFF8
7FFFFC
7FFFF8
7FFFF0
3FFFE0
1FFE00
ENDCHAR
STARTCHAR Eacute
ENCODING 201
SWIDTH 626 0
DWIDTH 23 0
BBX 23 39 0 0
BITMAP
000020
000070
0001F8
0003F8
0007F8
000FF0
000FE0
003F80
001F00
001E00
001C00
000000
000000
000078
001FFC
01FFFE
0FFFFE
3FFFFE
1FFFF8
1FFF80
1FFC00
1FC000
0FC000
0FFF80
0FFFC0
1FFFE0
1FFFE0
3FFFC0
3FFF00
7F0000
7E0000
FE0000
FC01E0
FFFFF8
7FFFFC
7FFFF8
7FFFF0
3FFFE0
1FFE00
ENDCHAR
STARTCHAR Ecircumflex
ENCODING 202
SWIDTH 626 0
DWIDTH 23 0
BBX 23 37 0 0
BITMAP
000300
000F80
001FC0
003FE0
007FF8
00FDFC
01F8FC
00F07C
006018
004010
000000
000078
001FFC
01FFFE
0FFFFE
3FFFFE
1FFFF8
1FFF80
1FFC00
1FC000
0FC000
0FFF80
0FFFC0
1FFFE0
1FFFE0
3FFFC0
3FFF00
7F0000
7E0000
FE0000
FC01E0
FFFFF8
7FFFFC
7FFFF8
7FFFF0
3FFFE0
1FFE00
ENDCHAR
STARTCHAR Edieresis
ENCODING 203
SWIDTH 626 0
DWIDTH 23 0
BBX 23 35 0 0
BITMAP
001000
00F07C
00F87E
01FC7E
01F87C
00F03C
004010
000000
000000
000078
001FFC
01FFFE
0FFFFE
3FFFFE
1FFFF8
1FFF80
1FFC00
1FC000
0FC000
0FFF80
0FFFC0
1FFFE0
1FFFE0
3FFFC0
3FFF00
7F0000
7E0000
FE0000
FC01E0
FFFFF8
7FFFFC
7FFFF8
7FFFF0
3FFFE0
1FFE00
ENDCHAR
STARTCHAR Igrave
ENCODING 204
SWIDTH 515 0
DWIDTH 19 0
BBX 24 40 -1 0
BITMAP
001000
003800
007C00
007E00
007F00
003F80
001FC0
000FE0
0007E0
0001E0
0000C0
000000
000000
000000
007FFC
07FFFE
07FFFF
07FFFF
07FFFE
03FF80
011F00
001F00
003F00
003F00
003E00
003E00
007E00
007C00
00FC00
00FC00
00FC00
01F800
01F800
03F000
0FFE00
FFFF00
FFFF80
FFFF80
FFFF00
7E0000
ENDCHAR
STARTCHAR Iacute
ENCODING 205
SWIDTH 515 0
DWIDTH 19 0
BBX 24 40 -1 0
BITMAP
00000C
00001E
00003E
00007F
0000FF
0001FE
0003F8
0007F0
0007E0
0007C0
000300
000000
000000
000000
007FFC
07FFFE
07FFFF
07FFFF
07FFFE
03FF80
011F00
001F00
003F00
003F00
003E00
003E00
007E00
007C00
00FC00
00FC00
00FC00
01F800
01F800
03F000
0FFE00
FFFF00
FFFF80
FFFF80
FFFF00
7E0000
ENDCHAR
STARTCHAR Icircumflex
ENCODING 206
SWIDTH 515 0
DWIDTH 19 0
BBX 24 38 -1 0
BITMAP
000180
0007E0
000FF0
001FF8
003FFC
007E7E
007C3E
00781E
00300C
001004
000000
000000
007FFC
07FFFE
07FFFF
07FFFF
07FFFE
03FF80
011F00
001F00
003F00
003F00
003E00
003E00
007E00
007C00
00FC00
00FC00
00FC00
01F800
01F800
03F000
0FFE00
FFFF00
FFFF80
FFFF80
FFFF00
7E0000
ENDCHAR
STARTCHAR Idieresis
ENCODING 207
SWIDTH 515 0
DWIDTH 19 0
BBX 25 36 -1 0
BITMAP
00080000
003C1E00
007E1F00
007E1F80
007E1F00
007C0E00
00200400
00000000
00000000
00000000
007FFC00
07FFFE00
07FFFF00
07FFFF00
07FFFE00
03FF8000
011F0000
001F0000
003F0000
003F0000
003E0000
003E0000
007E0000
007C0000
00FC0000
00FC0000
00FC0000
01F80000
01F80000
03F00000
0FFE0000
FFFF0000
FFFF8000
FFFF8000
FFFF0000
7E000000
ENDCHAR
STARTCHAR Eth
ENCODING 208
SWIDTH 656 0
DWIDTH 24 0
BBX 24 26 -1 0
BITMAP
030000
03E000
03F800
03FF00
03FF80
03FFC0
07FFF0
03C7F8
03C1FC
03C07E
1FF83E
FFF81F
7FFC0F
7FFC1F
7FF83F
7FE07F
27C1FE
07C7FE
07FFFC
0FFFF8
0FFFE0
0FFFC0
0FFF00
0FFC00
07E000
078000
ENDCHAR
STARTCHAR Ntilde
ENCODING 209
SWIDTH 684 0
DWIDTH 25 0
BBX 28 36 -1 0
BITMAP
0001E070
0007F9F0
000FFFF0
000FFFE0
001F7FC0
001E3F80
001C1F00
00000000
00000000
00000000
00600600
00780700
00FC0FC0
00FE0FC0
01FE1FE0
01FE1FC0
01FE1FC0
03FE1F80
03FC1F80
07FC1F80
07FC3F80
0FFC3F00
0FFC3F00
1FFC7F00
1FFC7F00
3FFCFF00
3FFDFF00
7FFFFE00
7FBFFE00
FFBFFE00
7F1FFC00
7E1FF800
7E0FF000
3E07F000
3E03C000
1C000000
ENDCHAR
STARTCHAR Ograve
ENCODING 210
SWIDTH 744 0
DWIDTH 27 0
BBX 26 38 0 0
BITMAP
00008000
0001C000
0003E000
0007F000
0007F800
0003FC00
0000FE00
00007F00
00003F00
00001F00
00000600
0000C000
0001E000
0007F000
000FF800
001FF800
003FF800
007FF800
00FFF800
03FFFC00
07FFFC00
07FE7E00
0FF03E00
1FE03F00
3FC01F00
3F801F80
7F000F80
7F000F80
7E000F80
FC003FC0
FC007F80
FC03FF80
FFFFFF80
7FFFFF00
7FFFFE00
3FFFF800
1FFFC000
0FFF0000
ENDCHAR
STARTCHAR Oacute
ENCODING 211
SWIDTH 744 0
DWIDTH 27 0
BBX 26 39 0 0
BITMAP
00002000
00007000
0000F800
0001F800
0003F800
0007F000
000FE000
001FC000
001F8000
001E0000
000C0000
00000000
0000C000
0001E000
0007F000
000FF800
001FF800
003FF800
007FF800
00FFF800
03FFFC00
07FFFC00
07FE7E00
0FF03E00
1FE03F00
3FC01F00
3F801F80
7F000F80
7F000F80
7E000F80
FC003FC0
FC007F80
FC03FF80
FFFFFF80
7FFFFF00
7FFFFE00
3FFFF800
1FFFC000
0FFF0000
ENDCHAR
STARTCHAR Ocircumflex
ENCODING 212
SWIDTH 744 0
DWIDTH 27 0
BBX 26 37 0 0
BITMAP
0000E000
0001F000
0003F800
0007FC00
000FFE00
003FBF80
003F1F80
001E0F00
001C0700
00080200
0000C000
0001E000
0007F000
000FF800
001FF800
003FF800
007FF800
00FFF800
03FFFC00
07FFFC00
07FE7E00
0FF03E00
1FE03F00
3FC01F00
3F801F80
7F000F80
7F000F80
7E000F80
FC003FC0
FC007F80
FC03FF80
FFFFFF80
7FFFFF00
7FFFFE00
3FFFF800
1FFFC000
0FFF0000
ENDCHAR
STARTCHAR Otilde
ENCODING 213
SWIDTH 744 0
DWIDTH 27 0
BBX 27 35 0 0
BITMAP
0003C0E0
000FF3E0
001FFFE0
001FFFC0
003EFF80
003C7F00
00383E00
00000000
0000C000
0001E000
0007F000
000FF800
001FF800
003FF800
007FF800
00FFF800
03FFFC00
07FFFC00
07FE7E00
0FF03E00
1FE03F00
3FC01F00
3F801F80
7F000F80
7F000F80
7E000F80
FC003FC0
FC007F80
FC03FF80
FFFFFF80
7FFFFF00
7FFFFE00
3FFFF800
1FFFC000
0FFF0000
ENDCHAR
STARTCHAR Odieresis
ENCODING 214
SWIDTH 744 0
DWIDTH 27 0
BBX 26 35 0 0
BITMAP
00040000
001C0F00
003E0F80
003F0F80
003F1F80
003E0F00
00100400
00000000
0000C000
0001E000
0007F000
000FF800
001FF800
003FF800
007FF800
00FFF800
03FFFC00
07FFFC00
07FE7E00
0FF03E00
1FE03F00
3FC01F00
3F801F80
7F000F80
7F000F80
7E000F80
FC003FC0
FC007F80
FC03FF80
FFFFFF80
7FFFFF00
7FFFFE00
3FFFF800
1FFFC000
0FFF0000
ENDCHAR
STARTCHAR multiply
ENCODING 215
SWIDTH 490 0
DWIDTH 18 0
BBX 18 19 0 0
BITMAP
100000
3C0380
1E0F80
3F1FC0
1FBF80
1FFF00
0FFC00
07F800
07E000
0FE000
1FF000
3FF000
7EF800
7C7C00
F87C00
F03C00
F03C00
E01C00
600000
ENDCHAR
STARTCHAR Oslash
ENCODING 216
SWIDTH 744 0
DWIDTH 27 0
BBX 26 32 0 -5
BITMAP
0000C000
0001E380
0007F780
000FFF80
001FFF80
003FFF80
007FFF80
00FFFF80
03FFFF00
07FFFE00
07FDFE00
0FF3FE00
1FE7FF00
3FC7FF00
3F8FDF80
7F1FCF80
7F3F8F80
7E7F0F80
FC7E3FC0
FCFC7F80
FDFFFF80
FFFFFF80
7FFFFF00
7FFFFE00
3FFFF800
1FFFC000
0FFF0000
1F800000
1F800000
0F800000
0F800000
03000000
ENDCHAR
STARTCHAR Ugrave
ENCODING 217
SWIDTH 695 0
DWIDTH 25 0
BBX 24 36 2 0
BITMAP
018000
03C000
03E000
07F000
07F800
03FC00
00FE00
007F00
003F00
001F00
000618
00001C
00001E
30003E
78003E
78003F
7C003F
7C003F
FE007F
FE007E
FC007E
FC00FE
FC01FE
FC01FC
FC03F8
FC0FF8
FC1FF0
FCFFF0
FFFFC0
FFFF80
7FFF80
7FFF00
7FFE00
3FF800
1FE000
078000
ENDCHAR
STARTCHAR Uacute
ENCODING 218
SWIDTH 695 0
DWIDTH 25 0
BBX 24 38 2 0
BITMAP
000060
0000F0
0001F0
0003F8
0007F8
000FF0
001FC0
003F80
003F00
003E00
001800
000000
000018
00001C
00001E
30003E
78003E
78003F
7C003F
7C003F
FE007F
FE007E
FC007E
FC00FE
FC01FE
FC01FC
FC03F8
FC0FF8
FC1FF0
FCFFF0
FFFFC0
FFFF80
7FFF80
7FFF00
7FFE00
3FF800
1FE000
078000
ENDCHAR
STARTCHAR Ucircumflex
ENCODING 219
SWIDTH 695 0
DWIDTH 25 0
BBX 24 37 2 0
BITMAP
000C00
003F00
007F80
00FFC0
01FFE0
03F3F0
03E1F0
03C0F0
018060
008020
000000
000018
00001C
00001E
30003E
78003E
78003F
7C003F
7C003F
FE007F
FE007E
FC007E
FC00FE
FC01FE
FC01FC
FC03F8
FC0FF8
FC1FF0
FCFFF0
FFFFC0
FFFF80
7FFF80
7FFF00
7FFE00
3FF800
1FE000
078000
ENDCHAR
STARTCHAR Udieresis
ENCODING 220
SWIDTH 695 0
DWIDTH 25 0
BBX 24 35 2 0
BITMAP
004000
03C0F0
03E1F8
03F1F8
03F1F8
03C0F0
010040
000000
000000
000018
00001C
00001E
30003E
78003E
78003F
7C003F
7C003F
FE007F
FE007E
FC007E
FC00FE
FC01FE
FC01FC
FC03F8
FC0FF8
FC1FF0
FCFFF0
FFFFC0
FFFF80
7FFF80
7FFF00
7FFE00
3FF800
1FE000
078000
ENDCHAR
STARTCHAR Yacute
ENCODING 221
SWIDTH 493 0
DWIDTH 18 0
BBX 21 41 1 -1
BITMAP
0000C0
0001C0
0003E0
0007F0
000FF0
001FE0
003F80
007F00
007E00
007C00
003000
000000
000000
000040
7001E0
7C03F0
7C07F8
7E0FF8
3E1FF0
7E1FE0
3E3FC0
3F7F80
3FFF00
3FFE00
3FFE00
1FFC00
1FF800
0FF800
07F000
0FF000
0FE000
1FC000
1FC000
3F8000
3F8000
7F0000
7F0000
FE0000
7E0000
7C0000
380000
ENDCHAR
STARTCHAR Thorn
ENCODING 222
SWIDTH 680 0
DWIDTH 25 0
BBX 24 26 1 0
BITMAP
060000
0E0000
1F0000
1F0000
1F0000
1FFFC0
3FFFF0
3FFFFC
3FFFFE
3FFFFE
7F00FE
7F00FF
7E01FF
7E07FE
FE1FFE
FE7FF8
FFFFF0
FFFFC0
FFFF00
FFF800
FFE000
FF0000
7C0000
7E0000
7C0000
3C0000
ENDCHAR
STARTCHAR germandbls
ENCODING 223
SWIDTH 931 0
DWIDTH 34 0
BBX 37 23 0 -1
BITMAP
0007C003C0
007FE03FF0
03FFF1FFF0
0FFFFFFFF8
3FFFFFFFF8
7FFFFFFFF8
7F807FC000
FFC07FE000
FFF07FF800
7FF83FFC00
3FF81FFC00
01FC00FE00
003E001E00
001E000F00
001E001F00
007E003F00
00FE00FE00
07FC03FE00
3FF81FFC00
3FF01FF800
3FE01FE000
3F801F8000
18000C0000
ENDCHAR
STARTCHAR agrave
ENCODING 224
SWIDTH 581 0
DWIDTH 21 0
BBX 22 35 -1 -1
BITMAP
001000
003800
007E00
007F00
007F80
003FC0
001FC0
0007F0
0003E0
0001E0
0000E0
000000
000800
000E00
001F00
003F80
01FF80
01FF80
03FF80
03FF80
07FF80
07E7C0
0FC7C0
0FC7F0
1F87F8
1FFFFC
3FFFF8
3EFFE0
7EFFF0
7CF1F0
FC03F0
FC0FE0
7803E0
7803C0
000100
ENDCHAR
STARTCHAR aacute
ENCODING 225
SWIDTH 581 0
DWIDTH 21 0
BBX 22 35 -1 -1
BITMAP
000080
0001C0
0003E0
0007E0
000FF0
001FC0
003F80
007F00
007E00
007C00
003000
000000
000800
000E00
001F00
003F80
01FF80
01FF80
03FF80
03FF80
07FF80
07E7C0
0FC7C0
0FC7F0
1F87F8
1FFFFC
3FFFF8
3EFFE0
7EFFF0
7CF1F0
FC03F0
FC0FE0
7803E0
7803C0
000100
ENDCHAR
STARTCHAR acircumflex
ENCODING 226
SWIDTH 581 0
DWIDTH 21 0
BBX 22 33 -1 -1
BITMAP
000600
001F80
003FC0
007FE0
00FFF0
01F9F8
01F0F8
01E078
00C030
008020
000800
000E00
001F00
003F80
01FF80
01FF80
03FF80
03FF80
07FF80
07E7C0
0FC7C0
0FC7F0
1F87F8
1FFFFC
3FFFF8
3EFFE0
7EFFF0
7CF1F0
FC03F0
FC0FE0
7803E0
7803C0
000100
ENDCHAR
STARTCHAR atilde
ENCODING 227
SWIDTH 581 0
DWIDTH 21 0
BBX 24 31 -1 -1
BITMAP
003E0E
007F9F
00FFBE
01FFFE
01F7FC
03E7F8
01C1F0
000000
000800
000E00
001F00
003F80
01FF80
01FF80
03FF80
03FF80
07FF80
07E7C0
0FC7C0
0FC7F0
1F87F8
1FFFFC
3FFFF8
3EFFE0
7EFFF0
7CF1F0
FC03F0
FC0FE0
7803E0
7803C0
000100
ENDCHAR
STARTCHAR adieresis
ENCODING 228
SWIDTH 581 0
DWIDTH 21 0
BBX 23 32 -1 -1
BITMAP
002000
00F078
01F87C
01F87E
01F87C
00F038
004010
000000
000000
000800
000E00
001F00
003F80
01FF80
01FF80
03FF80
03FF80
07FF80
07E7C0
0FC7C0
0FC7F0
1F87F8
1FFFFC
3FFFF8
3EFFE0
7EFFF0
7CF1F0
FC03F0
FC0FE0
7803E0
7803C0
000100
ENDCHAR
STARTCHAR aring
ENCODING 229
SWIDTH 581 0
DWIDTH 21 0
BBX 22 31 -1 -1
BITMAP
000080
0001C0
0007E0
0007C0
001FE0
001FE0
003CF0
003DF0
003FF0
003FF0
003FC0
003F80
01FF80
01FF80
03FF80
03FF80
07FF80
07E7C0
0FC7C0
0FC7F0
1F87F8
1FFFFC
3FFFF8
3EFFE0
7EFFF0
7CF1F0
FC03F0
FC0FE0
7803E0
7803C0
000100
ENDCHAR
STARTCHAR ae
ENCODING 230
SWIDTH 948 0
DWIDTH 34 0
BBX 38 23 -3 -1
BITMAP
0001000010
0001C007F8
0003E07FFC
0007E7FFFC
003FEFFFF8
007FE7FFE0
00FFE7FE00
00FFE7E000
01FFE3E000
03FBE3FF80
03F3F7FFC0
07E1FFFFE0
07C1FFFF80
0FFFFFFF00
1FFFFF8000
1F7FFF0000
3F7FFF00C0
3E71FFFFF0
7C01FFFFF0
FC07FFFFF0
7C03EFFFE0
7803CFFF00
0001000000
ENDCHAR
STARTCHAR ccedilla
ENCODING 231
SWIDTH 513 0
DWIDTH 19 0
BBX 18 31 0 -10
BITMAP
000F00
003F80
00FFC0
01FFC0
07FF80
0FFF00
1FF800
3FE000
7F8000
FF0000
FC0000
F80000
F80000
F00000
F80000
7E0000
7FFE00
3FFF00
3FFF80
0FFF80
03FE00
078000
078000
07C000
07F000
03F800
007800
007C00
1FFC00
1FF800
0FE000
ENDCHAR
STARTCHAR egrave
ENCODING 232
SWIDTH 521 0
DWIDTH 19 0
BBX 20 34 0 0
BITMAP
010000
038000
07C000
0FE000
0FF000
03F800
01FC00
00FE00
007E00
003E00
000C00
000000
000000
003FC0
03FFF0
1FFFF0
3FFFE0
3FFF80
3FF000
1F0000
1F0000
1FFE00
1FFF00
3FFF00
3FFE00
7FF800
7E0000
FC0000
F80700
FFFF80
7FFFC0
7FFF80
7FFF80
3FFC00
ENDCHAR
STARTCHAR eacute
ENCODING 233
SWIDTH 521 0
DWIDTH 19 0
BBX 20 34 0 0
BITMAP
000100
000380
000FC0
001FC0
003FC0
007F80
007F00
00FE00
00FC00
00F000
00E000
000000
000000
003FC0
03FFF0
1FFFF0
3FFFE0
3FFF80
3FF000
1F0000
1F0000
1FFE00
1FFF00
3FFF00
3FFE00
7FF800
7E0000
FC0000
F80700
FFFF80
7FFFC0
7FFF80
7FFF80
3FFC00
ENDCHAR
STARTCHAR ecircumflex
ENCODING 234
SWIDTH 521 0
DWIDTH 19 0
BBX 21 32 0 0
BITMAP
000C00
001F00
007F80
00FFC0
01FFE0
03F3F0
03F1F8
03E0F0
018060
008020
000000
003FC0
03FFF0
1FFFF0
3FFFE0
3FFF80
3FF000
1F0000
1F0000
1FFE00
1FFF00
3FFF00
3FFE00
7FF800
7E0000
FC0000
F80700
FFFF80
7FFFC0
7FFF80
7FFF80
3FFC00
ENDCHAR
STARTCHAR edieresis
ENCODING 235
SWIDTH 521 0
DWIDTH 19 0
BBX 22 31 0 0
BITMAP
004000
01E0F0
03F0F8
03F0FC
03F0F8
01E070
008020
000000
000000
000000
003FC0
03FFF0
1FFFF0
3FFFE0
3FFF80
3FF000
1F0000
1F0000
1FFE00
1FFF00
3FFF00
3FFE00
7FF800
7E0000
FC0000
F80700
FFFF80
7FFFC0
7FFF80
7FFF80
3FFC00
ENDCHAR
STARTCHAR igrave
ENCODING 236
SWIDTH 320 0
DWIDTH 12 0
BBX 12 34 2 0
BITMAP
1000
3800
7E00
7F00
7F80
3FC0
1FC0
07F0
03E0
01E0
00E0
0000
0400
0C00
1C00
1E00
3E00
3E00
3F00
3E00
7E00
7E00
7C00
7C00
FC00
FC00
F800
F800
F800
F800
F800
7800
7C00
7800
ENDCHAR
STARTCHAR iacute
ENCODING 237
SWIDTH 320 0
DWIDTH 12 0
BBX 17 35 2 0
BITMAP
000200
000700
001F00
003F80
007F80
00FF00
01FC00
03F800
03F000
01E000
018000
000000
000000
040000
0C0000
1C0000
1E0000
3E0000
3E0000
3F0000
3E0000
7E0000
7E0000
7C0000
7C0000
FC0000
FC0000
F80000
F80000
F80000
F80000
F80000
780000
7C0000
780000
ENDCHAR
STARTCHAR icircumflex
ENCODING 238
SWIDTH 320 0
DWIDTH 12 0
BBX 14 33 2 0
BITMAP
0300
0FC0
1FE0
3FF0
7FF8
FCFC
F87C
F03C
6018
4010
0000
0400
0C00
1C00
1E00
3E00
3E00
3F00
3E00
7E00
7E00
7C00
7C00
FC00
FC00
F800
F800
F800
F800
F800
7800
7C00
7800
ENDCHAR
STARTCHAR idieresis
ENCODING 239
SWIDTH 320 0
DWIDTH 12 0
BBX 16 31 1 0
BITMAP
1000
783C
FC3E
FC3F
FC3E
781C
2008
0000
0000
0200
0600
0E00
0F00
1F00
1F00
1F80
1F00
3F00
3F00
3E00
3E00
7E00
7E00
7C00
7C00
7C00
7C00
7C00
3C00
3E00
3C00
ENDCHAR
STARTCHAR eth
ENCODING 240
SWIDTH 541 0
DWIDTH 19 0
BBX 20 23 -1 -1
BITMAP
040000
070000
0FE000
07F800
0FFC00
0FFF00
0F3F80
070FC0
0783E0
FFE1E0
FFF0F0
FFF0F0
FFE1F0
7F83F0
0F1FE0
0F7FC0
1FFF80
1FFF00
1FFE00
1FF800
1FC000
0F0000
040000
ENDCHAR
STARTCHAR ntilde
ENCODING 241
SWIDTH 564 0
DWIDTH 20 0
BBX 26 31 -1 0
BITMAP
0007C1C0
001FE7C0
003FF7C0
003FFF80
007DFF00
007CFF00
00707C00
00000000
00000000
00802000
00C07000
01F07800
01F07C00
03F8FC00
03F8FC00
07F0F800
07F0F800
0FF0F800
0FF1F800
1FF1F000
1FF1F000
3FF3F000
3FF3F000
7FF7F000
7FFFE000
FF7FE000
7E7FC000
7C3FC000
7C1F8000
3C0F0000
18040000
ENDCHAR
STARTCHAR ograve
ENCODING 242
SWIDTH 628 0
DWIDTH 23 0
BBX 21 34 0 -1
BITMAP
000800
001C00
003E00
007F00
007F80
001FC0
000FE0
0007F0
0003F0
0001F0
000060
000700
001F00
003F80
007FC0
00FFC0
01FFC0
03FFC0
07FFC0
0FEBE0
1FC1E0
3F81F0
3F00F8
7E00F8
7C0078
7C00F8
F801F8
F807F8
FFFFF8
7FFFF0
7FFFE0
3FFF80
1FFC00
008000
ENDCHAR
STARTCHAR oacute
ENCODING 243
SWIDTH 628 0
DWIDTH 23 0
BBX 21 35 0 -1
BITMAP
000080
0001C0
0007E0
0007E0
000FE0
001FC0
003F80
007F00
007E00
007800
007000
000000
000700
001F00
003F80
007FC0
00FFC0
01FFC0
03FFC0
07FFC0
0FEBE0
1FC1E0
3F81F0
3F00F8
7E00F8
7C0078
7C00F8
F801F8
F807F8
FFFFF8
7FFFF0
7FFFE0
3FFF80
1FFC00
008000
ENDCHAR
STARTCHAR ocircumflex
ENCODING 244
SWIDTH 628 0
DWIDTH 23 0
BBX 22 34 0 -1
BITMAP
000300
000FC0
001FE0
003FF0
007FF8
00FCFC
00F87C
00F03C
006018
002008
000000
000700
001F00
003F80
007FC0
00FFC0
01FFC0
03FFC0
07FFC0
0FEBE0
1FC1E0
3F81F0
3F00F8
7E00F8
7C0078
7C00F8
F801F8
F807F8
FFFFF8
7FFFF0
7FFFE0
3FFF80
1FFC00
008000
ENDCHAR
STARTCHAR otilde
ENCODING 245
SWIDTH 628 0
DWIDTH 23 0
BBX 25 32 0 -1
BITMAP
000F8380
003FCF80
007FEF80
007FFF00
00FBFE00
00F9FE00
00E0F800
00000000
00000000
00070000
001F0000
003F8000
007FC000
00FFC000
01FFC000
03FFC000
07FFC000
0FEBE000
1FC1E000
3F81F000
3F00F800
7E00F800
7C007800
7C00F800
F801F800
F807F800
FFFFF800
7FFFF000
7FFFE000
3FFF8000
1FFC0000
00800000
ENDCHAR
STARTCHAR odieresis
ENCODING 246
SWIDTH 628 0
DWIDTH 23 0
BBX 24 32 0 -1
BITMAP
001000
00783C
00FC3E
00FC3F
00FC3E
00F81C
004008
000000
000000
000700
001F00
003F80
007FC0
00FFC0
01FFC0
03FFC0
07FFC0
0FEBE0
1FC1E0
3F81F0
3F00F8
7E00F8
7C0078
7C00F8
F801F8
F807F8
FFFFF8
7FFFF0
7FFFE0
3FFF80
1FFC00
008000
ENDCHAR
STARTCHAR divide
ENCODING 247
SWIDTH 559 0
DWIDTH 20 0
BBX 19 21 0 0
BITMAP
003000
007800
00FC00
00FC00
00F800
00F800
004000
000000
07FE00
FFFF80
FFFFE0
FFFFE0
7FFF80
780000
000000
038000
03E000
07E000
07E000
07C000
03C000
ENDCHAR
STARTCHAR oslash
ENCODING 248
SWIDTH 632 0
DWIDTH 23 0
BBX 22 26 0 -4
BITMAP
000718
001FB8
003FF8
007FF8
00FFF8
01FFF8
03FFF0
07FFE0
0FE7E0
1FCFF0
3F9FF0
3F3FF8
7E3E78
7C7C78
7CFCF8
F9F9FC
FBF7F8
FFFFF8
7FFFF0
7FFFE0
3FFF80
1FFE00
1FC000
1F0000
1F0000
0E0000
ENDCHAR
STARTCHAR ugrave
ENCODING 249
SWIDTH 584 0
DWIDTH 21 0
BBX 20 34 2 0
BITMAP
010000
038000
07C000
07E000
0FF000
03F800
01FC00
00FE00
007E00
003E00
000C00
000000
000080
0000C0
0000E0
6001E0
7001E0
7801F0
F801F0
F801F0
FC03E0
F803E0
F807E0
F80FC0
F81FC0
F83F80
F87F80
FFFF00
FFFE00
FFFC00
7FF800
7FF000
3FC000
1F0000
ENDCHAR
STARTCHAR uacute
ENCODING 250
SWIDTH 584 0
DWIDTH 21 0
BBX 20 32 2 0
BITMAP
000180
000380
0007C0
000FE0
001FE0
003FC0
007F00
00FE00
00FC00
00F800
006080
0000C0
0000E0
6001E0
7001E0
7801F0
F801F0
F801F0
FC03E0
F803E0
F807E0
F80FC0
F81FC0
F83F80
F87F80
FFFF00
FFFE00
FFFC00
7FF800
7FF000
3FC000
1F0000
ENDCHAR
STARTCHAR ucircumflex
ENCODING 251
SWIDTH 584 0
DWIDTH 21 0
BBX 20 33 2 0
BITMAP
001800
007C00
00FE00
01FF00
03FFC0
0FEFE0
0FC7E0
0783E0
0701C0
020080
000000
000080
0000C0
0000E0
6001E0
7001E0
7801F0
F801F0
F801F0
FC03E0
F803E0
F807E0
F80FC0
F81FC0
F83F80
F87F80
FFFF00
FFFE00
FFFC00
7FF800
7FF000
3FC000
1F0000
ENDCHAR
STARTCHAR udieresis
ENCODING 252
SWIDTH 584 0
DWIDTH 21 0
BBX 20 31 2 0
BITMAP
010000
0783C0
0FC3E0
0FC3F0
0FC3E0
0781C0
020080
000000
000000
000080
0000C0
0000E0
6001E0
7001E0
7801F0
F801F0
F801F0
FC03E0
F803E0
F807E0
F80FC0
F81FC0
F83F80
F87F80
FFFF00
FFFE00
FFFC00
7FF800
7FF000
3FC000
1F0000
ENDCHAR
STARTCHAR yacute
ENCODING 253
SWIDTH 400 0
DWIDTH 14 0
BBX 19 37 1 -1
BITMAP
000100
000380
0007C0
000FE0
001FE0
003FC0
007F00
00FE00
00FC00
00F800
006000
000000
000000
000000
200600
780F00
7C1F80
7C3F80
7C7F80
7C7E00
7CFE00
3FFC00
3FF800
3FF000
1FE000
1FE000
0FC000
0FC000
1F8000
1F0000
3F0000
3E0000
7E0000
7C0000
FC0000
780000
380000
ENDCHAR
STARTCHAR thorn
ENCODING 254
SWIDTH 579 0
DWIDTH 21 0
BBX 20 22 1 0
BITMAP
0C0000
1C0000
1E0000
3E0000
3FFC00
3FFF80
3FFFE0
3FFFE0
7E07F0
7E03F0
7C07F0
FC1FF0
FC7FE0
FDFFC0
FFFF00
FFFC00
FFE000
FF0000
F80000
7C0000
780000
780000
ENDCHAR
STARTCHAR ydieresis
ENCODING 255
SWIDTH 400 0
DWIDTH 14 0
BBX 19 33 1 -1
BITMAP
010000
0703C0
0F83E0
0FC3E0
0FC7E0
0F83C0
040100
000000
000000
000000
200600
780F00
7C1F80
7C3F80
7C7F80
7C7E00
7CFE00
3FFC00
3FF800
3FF000
1FE000
1FE000
0FC000
0FC000
1F8000
1F0000
3F0000
3E0000
7E0000
7C0000
FC0000
780000
380000
ENDCHAR
STARTCHAR dotlessi
ENCODING 305
SWIDTH 320 0
DWIDTH 12 0
BBX 8 22 2 0
BITMAP
04
0C
1C
1E
3E
3E
3F
3E
7E
7E
7C
7C
FC
FC
F8
F8
F8
F8
F8
78
7C
78
ENDCHAR
STARTCHAR Lslash
ENCODING 321
SWIDTH 632 0
DWIDTH 23 0
BBX 26 26 -4 0
BITMAP
00380000
003F0000
003F0000
007F0000
007F0000
007F0000
00FE0000
00FE0000
00FF8000
01FFE000
03FFE000
0FFFC000
7FFF0000
FFF80000
7FF00000
3FF00000
1FE00000
07E00000
0FE00000
0FE7FC00
0FFFFF80
07FFFFC0
07FFFFC0
07FFFFC0
03FFFF80
01FC0000
ENDCHAR
STARTCHAR lslash
ENCODING 322
SWIDTH 533 0
DWIDTH 19 0
BBX 22 23 -4 -1
BITMAP
002000
007800
007C00
007C00
00FC00
00FC00
00F800
01F800
01FF00
03FF80
1FFF00
7FFC00
FFE000
7FE000
3FC000
0FC000
0FCFE0
0FFFF8
07FFFC
07FFFC
07FFFC
03FC00
008000
ENDCHAR
STARTCHAR OE
ENCODING 338
SWIDTH 1212 0
DWIDTH 44 0
BBX 45 27 0 0
BITMAP
0000C0000000
0001E00003C0
0007F000FFF0
000FF80FFFF8
001FF87FFFF8
003FF8FFFFF0
007FF8FFFFC0
00FFF8FFFC00
03FFFCFFE000
07FFFCFE0000
07FE7E7E0000
0FF03E7FFC00
1FE03F7FFE00
3FC01FFFFF80
3F801FFFFF00
7F000FFFFE00
7F000FFFF800
7E000FF80000
FC003FF00000
FC007FF00000
FC03FFE00F80
FFFFFFFFFFC0
7FFFFFFFFFE0
7FFFFFFFFFC0
3FFFFBFFFF80
1FFFC1FFFF00
0FFF00FFF800
ENDCHAR
STARTCHAR oe
ENCODING 339
SWIDTH 1010 0
DWIDTH 36 0
BBX 37 23 0 -1
BITMAP
0007000010
001F000FF0
003F80FFF8
007FC7FFF8
00FFCFFFF0
01FFCFFFC0
03FFCFFC00
07FFEFC000
0FEBE7C000
1FC1E7FF00
3F81FFFFC0
3F00FFFFC0
7E00FFFF80
7C007FFE00
7C00FF0000
F801FF0000
F807FE01C0
FFFFFFFFE0
7FFFFFFFE0
7FFFFFFFE0
3FFF9FFFC0
1FFC0FFF00
0080000000
ENDCHAR
STARTCHAR Scaron
ENCODING 352
SWIDTH 576 0
DWIDTH 21 0
BBX 25 38 0 0
BITMAP
00600800
00601C00
00F87C00
00FC7C00
00FCFC00
007FF800
001FF000
000FE000
00078000
00030000
00000000
00000000
0007FC00
003FFE00
01FFFF00
0FFFFF00
3FFFFF80
7FFFFF00
7FFC0000
7FC00000
FFF00000
7FFC0000
FFFE0000
3FFF0000
0FFF0000
003F8000
0007C000
0003C000
0007C000
000FC000
003FC000
00FF8000
07FF8000
3FFF0000
3FFE0000
3FF80000
3FF00000
1F800000
ENDCHAR
STARTCHAR scaron
ENCODING 353
SWIDTH 463 0
DWIDTH 17 0
BBX 21 35 0 -1
BITMAP
020080
0701C0
0F83C0
0FC7E0
0FEFC0
03FF80
01FF00
00FE00
007C00
001000
000000
000000
0007C0
007FE0
03FFF0
0FFFF0
3FFFF8
7FFFF0
7F8000
FFC000
FFF000
7FF800
3FF800
01FC00
003E00
001E00
001E00
007E00
00FE00
07FC00
3FF800
3FF000
3FE000
3F8000
180000
ENDCHAR
STARTCHAR Ydieresis
ENCODING 376
SWIDTH 493 0
DWIDTH 18 0
BBX 21 37 1 -1
BITMAP
008000
03C1E0
07E1F0
07E1F8
07E1F0
03C0E0
010040
000000
000000
000040
7001E0
7C03F0
7C07F8
7E0FF8
3E1FF0
7E1FE0
3E3FC0
3F7F80
3FFF00
3FFE00
3FFE00
1FFC00
1FF800
0FF800
07F000
0FF000
0FE000
1FC000
1FC000
3F8000
3F8000
7F0000
7F0000
FE0000
7E0000
7C0000
380000
ENDCHAR
STARTCHAR Zcaron
ENCODING 381
SWIDTH 664 0
DWIDTH 24 0
BBX 26 40 0 -1
BITMAP
00040100
000E0380
001F0780
001F8FC0
001FDF80
0007FF00
0003FE00
0001FC00
0000F800
00002000
00000000
00000000
00000000
03FBEC00
07FFFF00
07FFFF00
07FFFF80
03FFFF80
03FFFF80
0181FF00
0003FE00
0007FC00
001FF000
003FE000
00FFC000
01FF8000
07FF0000
0FFE0000
1FF80000
7FF00000
7FC00000
FF803000
FF03F800
FE1FFC00
FFFFFC00
FFFFFC00
FFFFF000
7FFFC000
7FF40000
2FE00000
ENDCHAR
STARTCHAR zcaron
ENCODING 382
SWIDTH 547 0
DWIDTH 20 0
BBX 22 36 0 -1
BITMAP
006008
00601C
00F87C
00FC7C
00FCFC
007FF8
001FF0
000FE0
000780
000300
000000
000000
000000
000000
0FFFE0
0FFFF0
0FFFF8
07FFF8
07FFF0
000FF0
001FC0
007F80
00FF00
03FE00
07FC00
0FF800
3FE000
7FC000
FF0080
FE0780
FC3FE0
FFFFE0
FFFFC0
FFFF00
7FF800
3FC000
ENDCHAR
STARTCHAR circumflex
ENCODING 710
SWIDTH 754 0
DWIDTH 27 0
BBX 15 10 8 18
BITMAP
0180
07C0
0FF0
1FF8
3FFC
7E7E
FC7E
783E
300C
2008
ENDCHAR
STARTCHAR caron
ENCODING 711
SWIDTH 754 0
DWIDTH 27 0
BBX 15 10 8 18
BITMAP
2008
701C
783E
FC7E
7EFE
3FF8
1FF0
0FE0
07C0
0100
ENDCHAR
STARTCHAR breve
ENCODING 728
SWIDTH 754 0
DWIDTH 27 0
BBX 15 8 8 20
BITMAP
2008
701C
783E
FE7E
7FFE
3FFC
1FF8
07C0
ENDCHAR
STARTCHAR dotaccent
ENCODING 729
SWIDTH 754 0
DWIDTH 27 0
BBX 6 7 13 20
BITMAP
10
F0
F8
FC
FC
F0
40
ENDCHAR
STARTCHAR ring
ENCODING 730
SWIDTH 754 0
DWIDTH 27 0
BBX 11 11 10 18
BITMAP
0380
0780
0F80
1FC0
3FC0
79E0
79E0
FFE0
FFE0
7FC0
3E00
ENDCHAR
STARTCHAR ogonek
ENCODING 731
SWIDTH 754 0
DWIDTH 27 0
BBX 13 11 11 -10
BITMAP
6000
E000
E000
E000
E000
F000
FFC0
7FF8
3FF8
1FF8
00C0
ENDCHAR
STARTCHAR tilde
ENCODING 732
SWIDTH 754 0
DWIDTH 27 0
BBX 17 7 7 20
BITMAP
0F8380
1FC780
3FEF80
7FFF00
7FFF00
F9FE00
E07800
ENDCHAR
STARTCHAR hungarumlaut
ENCODING 733
SWIDTH 754 0
DWIDTH 27 0
BBX 20 11 6 16
BITMAP
0100C0
0381C0
07C3E0
0FC7F0
1FCFF0
3F9FE0
7F3F80
FE7F00
FC7E00
F07C00
603000
ENDCHAR
STARTCHAR endash
ENCODING 8211
SWIDTH 588 0
DWIDTH 21 0
BBX 19 6 0 6
BITMAP
3FFF80
FFFFC0
7FFFE0
7FFFE0
7FFE00
100000
ENDCHAR
STARTCHAR emdash
ENCODING 8212
SWIDTH 878 0
DWIDTH 32 0
BBX 30 5 0 7
BITMAP
7FFFFFE0
FFFFFFF0
7FFFFFFC
7FFFFFF8
3FE00000
ENDCHAR
STARTCHAR quoteleft
ENCODING 8216
SWIDTH 203 0
DWIDTH 7 0
BBX 8 11 3 16
BITMAP
1E
3F
3F
7F
7E
7C
FC
F8
F8
78
18
ENDCHAR
STARTCHAR quoteright
ENCODING 8217
SWIDTH 199 0
DWIDTH 7 0
BBX 9 11 2 16
BITMAP
0E00
1F80
1F80
1F80
1F80
3F00
3F00
7E00
FE00
7C00
1800
ENDCHAR
STARTCHAR quotesinglbase
ENCODING 8218
SWIDTH 204 0
DWIDTH 7 0
BBX 8 11 -4 -6
BITMAP
1C
1F
1F
1F
3F
3F
3F
7E
FC
FC
38
ENDCHAR
STARTCHAR quotedblleft
ENCODING 8220
SWIDTH 410 0
DWIDTH 15 0
BBX 16 11 3 16
BITMAP
1C3C
3F3F
7F7F
7E7E
7EFC
7CFC
FCF8
F8F8
F8F8
F8F0
7830
ENDCHAR
STARTCHAR quotedblright
ENCODING 8221
SWIDTH 425 0
DWIDTH 15 0
BBX 17 11 2 16
BITMAP
0E0E00
1F8F80
1F9F80
1F9F80
1F9F80
3F3F00
3F3F00
7E7E00
FEFC00
7CFC00
183000
ENDCHAR
STARTCHAR quotedblbase
ENCODING 8222
SWIDTH 430 0
DWIDTH 16 0
BBX 17 11 -4 -6
BITMAP
1C0C00
1F1F00
1F1F80
1F1F80
3F3F00
3F3F00
3F7E00
7E7E00
FCFC00
FCF800
387000
ENDCHAR
STARTCHAR bullet
ENCODING 8226
SWIDTH 299 0
DWIDTH 11 0
BBX 8 8 1 7
BITMAP
30
7C
7F
FE
FF
FE
FE
7E
ENDCHAR
STARTCHAR ellipsis
ENCODING 8230
SWIDTH 768 0
DWIDTH 28 0
BBX 26 7 -1 -1
BITMAP
20100400
7C1F0780
FC3F0FC0
FC3F1FC0
7C3E0F80
7C1E0F80
301C0700
ENDCHAR
STARTCHAR perthousand
ENCODING 8240
SWIDTH 889 0
DWIDTH 32 0
BBX 31 26 1 0
BITMAP
01000000
03800E00
07C01E00
0FC03C00
1FC07C00
3FE0FC00
79E1F800
7BE3F000
7FE7E000
7FEFC000
7F9F8000
1C3F0000
007E0000
00FC0000
01F8C018
03F1E03C
07C7C0F8
0F8FE1FC
1F1FE3FC
3E1EF3FE
7C3CF79E
7C3FF7FE
783FF7FE
F83FE7FC
F81F83F8
70000000
ENDCHAR
STARTCHAR guilsinglleft
ENCODING 8249
SWIDTH 322 0
DWIDTH 12 0
BBX 11 16 0 -1
BITMAP
00C0
01E0
03E0
0FC0
1F80
BF00
FE00
FC00
F000
FC00
7E00
3F00
1F00
0F80
0380
0180
ENDCHAR
STARTCHAR guilsinglright
ENCODING 8250
SWIDTH 341 0
DWIDTH 12 0
BBX 11 16 -1 -1
BITMAP
3000
3C00
3E00
1F80
1FC0
07E0
03E0
03E0
0FE0
1FE0
3F80
7E00
FC00
F000
E000
4000
ENDCHAR
STARTCHAR fraction
ENCODING 8260
SWIDTH 541 0
DWIDTH 19 0
BBX 19 27 0 -1
BITMAP
0000E0
0000E0
0001E0
0003E0
0007E0
000FC0
000FC0
001F80
003F00
007E00
007C00
00F800
01F800
03F000
07E000
0FC000
0F8000
1F0000
3F0000
7E0000
7C0000
7C0000
F80000
F80000
F80000
780000
100000
ENDCHAR
STARTCHAR Euro
ENCODING 8364
SWIDTH 565 0
DWIDTH 20 0
BBX 20 22 -1 0
BITMAP
000180
0003E0
000FF0
001FF0
007FF0
00FFE0
01FFC0
03FE00
07F800
0FF000
0FFC00
7FFF80
FFFFC0
7FFFC0
7FFE00
3F0000
0FFE00
07FFE0
07FFE0
01FFE0
00FFC0
000600
ENDCHAR
STARTCHAR Delta
ENCODING 8710
SWIDTH 403 0
DWIDTH 15 0
BBX 20 23 -1 -1
BITMAP
001F00
0FFFE0
0FFFF0
0FFFF0
07FFE0
077C00
007C00
007800
00F800
00F800
00F000
01F000
01F000
01F000
03E000
03E000
07C000
07F000
FFFC00
FFFC00
FFFC00
FF8000
400000
ENDCHAR
STARTCHAR minus
ENCODING 8722
SWIDTH 548 0
DWIDTH 20 0
BBX 18 6 0 6
BITMAP
3FFF00
FFFF80
FFFFC0
FFFFC0
7FF800
200000
ENDCHAR
STARTCHAR approxequal
ENCODING 8776
SWIDTH 323 0
DWIDTH 12 0
BBX 10 26 1 0
BITMAP
0600
0F00
0F00
1F80
1F80
1F80
3FC0
3F80
3F80
3F80
3F00
7F00
7F00
7E00
7E00
7E00
7E00
7E00
FE00
FE00
7E00
7E00
7E00
7E00
3E00
3C00
ENDCHAR
STARTCHAR fi
ENCODING 64257
SWIDTH 810 0
DWIDTH 29 0
BBX 28 22 -1 0
BITMAP
0001F020
001FF8E0
01FFFCE0
0FFFFDF0
1FFFF9F0
1FF803F0
1FE001F0
0FC003F0
07C003F0
07C003E0
0F8007E0
7FFF07E0
FFFF87C0
FFFF87C0
7FFF07C0
7FF007C0
3E0007C0
3E0007C0
3C0007C0
7C0007C0
3C0003C0
3C0003C0
ENDCHAR
STARTCHAR fl
ENCODING 64258
SWIDTH 1012 0
DWIDTH 36 0
BBX 37 23 -1 -1
BITMAP
0001F08000
001FF9F000
01FFFDF000
0FFFFDF800
1FFFF9F000
1FF803F000
1FE003E000
0FC007E000
07C007E000
07C007C000
0F800FC000
7FFF0FC000
FFFF8F8000
FFFF9F8000
7FFF1F8000
7FF01F0000
3E001F1F80
3E001FFFF0
3C001FFFF0
7C001FFFF8
3C000FFFF8
3C000FF000
0000010000
ENDCHAR
STARTCHAR .notdef
ENCODING -1
SWIDTH 370 0
DWIDTH 13 0
BBX 1 1 0 0
BITMAP
00
ENDCHAR
ENDFONT
